<svg width="48" height="48" fill="none" xmlns="http://www.w3.org/2000/svg"><g clip-path="url(#kp8cysf36a)" fill="#fff"><path d="M48.017 0v2.268c0 .328-.086.675-.277.934-.26.381-.484.606-.744.866-.294.294-.589.575-.883.857a54.17 54.17 0 0 0-.883.856L7.322 43.707h17.621c1.8 0 3.532-.346 5.176-1.038a12.93 12.93 0 0 0 2.25-1.23 12.645 12.645 0 0 0 1.974-1.627 13.703 13.703 0 0 0 1.627-1.973c.484-.71.9-1.471 1.229-2.25a13.224 13.224 0 0 0 1.038-5.176V18.85l4.276-4.275V30.43a17.22 17.22 0 0 1-.364 3.53 17.366 17.366 0 0 1-1.021 3.307 16.571 16.571 0 0 1-1.627 2.977 17.14 17.14 0 0 1-2.146 2.597 17.114 17.114 0 0 1-2.597 2.146 17.725 17.725 0 0 1-2.977 1.627c-1.056.45-2.164.796-3.306 1.021-1.16.243-2.355.364-3.532.364H0v-2.285c0-.277.07-.554.19-.796.174-.329.45-.675.727-.935 1.372-1.357.95-.934.863-.845l.038-.038c.233-.233.276-.273.361-.353.124-.115.338-.315 1.352-1.308L40.713 4.276H23.09c-1.8 0-3.531.346-5.175 1.038a12.93 12.93 0 0 0-2.25 1.23 12.646 12.646 0 0 0-1.974 1.626 13.702 13.702 0 0 0-1.627 1.973c-.485.71-.9 1.472-1.23 2.25a13.224 13.224 0 0 0-1.038 5.176v11.563l-4.275 4.276V17.569c0-1.194.121-2.388.363-3.53a17.372 17.372 0 0 1 1.022-3.307 16.576 16.576 0 0 1 1.627-2.977 17.11 17.11 0 0 1 2.146-2.597 17.113 17.113 0 0 1 2.597-2.146 17.732 17.732 0 0 1 2.977-1.627A16.638 16.638 0 0 1 19.56.364 17.344 17.344 0 0 1 23.091 0h24.926Z"/><path d="M19.024 18.071c0-.623.12-1.229.363-1.8a4.492 4.492 0 0 1 .987-1.471 4.404 4.404 0 0 1 1.471-.987 4.582 4.582 0 0 1 1.8-.363h1.853l4.275-4.276h-6.11a9.086 9.086 0 0 0-3.462.692 9.197 9.197 0 0 0-2.839 1.905 8.807 8.807 0 0 0-1.904 2.838 8.831 8.831 0 0 0-.692 3.462v6.11l4.275-4.275v-1.835h-.017Zm9.606 13.641a4.583 4.583 0 0 0 .364-1.8v-1.836l4.275-4.275v6.11a8.832 8.832 0 0 1-.692 3.462 8.808 8.808 0 0 1-1.904 2.839 9.197 9.197 0 0 1-2.839 1.904 9.087 9.087 0 0 1-3.462.693h-6.11l4.275-4.276h1.835c.623 0 1.23-.121 1.8-.364a4.406 4.406 0 0 0 1.472-.986 4.49 4.49 0 0 0 .986-1.471Z"/></g><defs><clipPath id="kp8cysf36a"><path fill="#fff" d="M0 0h48v48H0z"/></clipPath></defs></svg>