<svg width="48" height="48" fill="none" xmlns="http://www.w3.org/2000/svg"><path d="M25.457 34.03a5.325 5.325 0 0 1-7.536 0L5.561 21.67a5.328 5.328 0 0 1 0-7.536l10.74-10.74a10.808 10.808 0 0 0 1.251 15.221l7.905 7.879a5.327 5.327 0 0 1 0 7.536Z" fill="url(#gicrcbn3aa)"/><path d="M16.828 17.943a10.698 10.698 0 0 1-.527-14.549l1.264-1.267a10.806 10.806 0 0 1 2.91-1.765 5.329 5.329 0 0 1 4.982 8.948l-8.59 8.594-.039.039Z" fill="url(#d8mck1kylb)"/><path d="M16.906 2.722c.213-.214.433-.414.646-.608l-1.25 1.28a8 8 0 0 1 .604-.672Z" fill="#0D1026"/><path d="M22.994 46.316a5.326 5.326 0 0 0 7.536 0l12.36-12.36a5.326 5.326 0 0 0 0-7.536L32.15 15.68a10.807 10.807 0 0 1-1.252 15.22l-7.904 7.88a5.326 5.326 0 0 0 0 7.536Z" fill="url(#u0awwp92bc)"/><path d="M31.623 30.228a10.696 10.696 0 0 0 .527-14.548l-1.264-1.268a10.798 10.798 0 0 0-2.91-1.765 5.327 5.327 0 0 0-4.982 8.95l8.59 8.593.039.038Z" fill="url(#gbmaqmb1dd)"/><path d="M31.545 15.007a18.767 18.767 0 0 0-.647-.608l1.252 1.28a8.246 8.246 0 0 0-.605-.672Z" fill="#0D1026"/><defs><linearGradient id="gicrcbn3aa" x1="9.04" y1="10.643" x2="28.938" y2="30.541" gradientUnits="userSpaceOnUse"><stop stop-color="#F3F3F3"/><stop offset="1" stop-color="#AAA"/></linearGradient><linearGradient id="d8mck1kylb" x1="25.445" y1="1.778" x2="13.061" y2="14.161" gradientUnits="userSpaceOnUse"><stop stop-color="#E0E0E0"/><stop offset="1" stop-color="#A8A8A8"/></linearGradient><linearGradient id="u0awwp92bc" x1="39.411" y1="22.929" x2="19.513" y2="42.827" gradientUnits="userSpaceOnUse"><stop stop-color="#F3F3F3"/><stop offset="1" stop-color="#AAA"/></linearGradient><linearGradient id="gbmaqmb1dd" x1="23.006" y1="14.063" x2="35.39" y2="26.447" gradientUnits="userSpaceOnUse"><stop stop-color="#E0E0E0"/><stop offset="1" stop-color="#A8A8A8"/></linearGradient></defs></svg>