<svg width="48" height="48" fill="none" xmlns="http://www.w3.org/2000/svg"><path fill-rule="evenodd" clip-rule="evenodd" d="M48 24c0 13.255-10.745 24-24 24S0 37.255 0 24A23.932 23.932 0 0 1 7.5 6.572v7.678a1.25 1.25 0 1 0 2.5 0V4.504A23.891 23.891 0 0 1 24 0c5.225 0 10.06 1.67 14 4.504v9.746a1.25 1.25 0 1 0 2.5 0V6.572A23.933 23.933 0 0 1 48 24ZM24 13c-6.075 0-11 4.925-11 11 0 4.625 2.854 8.588 6.907 10.214a2.5 2.5 0 0 1-1.862 4.64C12.162 36.495 8 30.736 8 24c0-8.837 7.163-16 16-16s16 7.163 16 16c0 6.747-4.175 12.513-10.074 14.866a2.5 2.5 0 1 1-1.852-4.644C32.136 32.6 35 28.632 35 24c0-6.075-4.925-11-11-11Zm8 9.499a2.5 2.5 0 1 1-5 0 2.5 2.5 0 0 1 5 0Zm-11.502 0a2.5 2.5 0 1 1-5 0 2.5 2.5 0 0 1 5 0Z" fill="#fff"/></svg>