<svg width="464" height="286" viewBox="0 0 464 286" fill="none" xmlns="http://www.w3.org/2000/svg"><g clip-path="url(#6sudt81yoa)"><path d="M0 6.74A6.74 6.74 0 0 1 6.74 0h450.52A6.74 6.74 0 0 1 464 6.74V286H0V6.74Z" fill="#13111C"/><path d="M44.897 33.85V22.82h4.136c.847 0 1.558.159 2.133.475.578.316 1.014.75 1.308 1.303.298.55.447 1.174.447 1.874 0 .707-.149 1.335-.447 1.885-.298.55-.737.982-1.319 1.298-.582.312-1.298.468-2.149.468h-2.74v-1.642h2.471c.495 0 .901-.087 1.217-.259.316-.172.55-.41.7-.71a2.25 2.25 0 0 0 .232-1.04c0-.391-.078-.736-.232-1.034a1.573 1.573 0 0 0-.705-.695c-.316-.168-.724-.253-1.223-.253h-1.83v9.36h-1.999Zm9.673 0v-8.272h1.89v1.379h.087c.15-.478.41-.846.775-1.104a2.13 2.13 0 0 1 1.266-.394c.108 0 .228.006.36.017.137.007.25.02.34.037v1.794a2.055 2.055 0 0 0-.393-.076 3.62 3.62 0 0 0-.512-.037c-.355 0-.675.077-.958.231-.28.15-.501.36-.663.63-.161.27-.242.58-.242.932v4.863h-1.95Zm9.28.161c-.807 0-1.507-.177-2.1-.533a3.62 3.62 0 0 1-1.378-1.492c-.323-.639-.485-1.385-.485-2.24 0-.854.162-1.603.485-2.245a3.613 3.613 0 0 1 1.378-1.498c.593-.355 1.293-.533 2.1-.533.809 0 1.509.178 2.1.533a3.581 3.581 0 0 1 1.374 1.497c.327.643.49 1.392.49 2.246 0 .855-.163 1.601-.49 2.24a3.584 3.584 0 0 1-1.373 1.492c-.592.356-1.292.533-2.1.533Zm.011-1.562c.438 0 .805-.12 1.099-.36.294-.244.513-.571.657-.98.147-.41.22-.866.22-1.368a4.04 4.04 0 0 0-.22-1.373 2.174 2.174 0 0 0-.657-.986c-.294-.244-.66-.366-1.098-.366-.45 0-.823.122-1.12.366a2.211 2.211 0 0 0-.663.985c-.144.41-.215.868-.215 1.374 0 .502.071.958.215 1.368.147.409.368.736.662.98.298.24.672.36 1.12.36Zm5.608-6.871h1.95v8.746c0 .596-.114 1.087-.34 1.475a2.083 2.083 0 0 1-.98.867c-.427.19-.946.286-1.556.286a3.08 3.08 0 0 1-.2-.006c-.06 0-.127-.002-.199-.005v-1.589c.054.004.102.006.145.006.044.003.088.005.135.005.373 0 .64-.092.802-.275.162-.18.243-.443.243-.791v-8.719Zm.97-1.174c-.313 0-.58-.102-.803-.307a.997.997 0 0 1-.329-.748.99.99 0 0 1 .329-.75c.222-.207.49-.311.802-.311.309 0 .573.104.792.312a.979.979 0 0 1 .334.748.99.99 0 0 1-.334.749 1.118 1.118 0 0 1-.792.307Zm6.646 9.607c-.83 0-1.546-.172-2.149-.517-.6-.348-1.06-.84-1.384-1.475-.323-.64-.485-1.391-.485-2.257 0-.85.162-1.597.485-2.24a3.665 3.665 0 0 1 1.368-1.508c.585-.362 1.273-.544 2.063-.544.51 0 .99.083 1.443.248.456.162.858.413 1.206.754.352.341.628.775.83 1.303.2.524.301 1.149.301 1.874v.598h-6.78v-1.314h4.911a2.097 2.097 0 0 0-.242-.996 1.761 1.761 0 0 0-.662-.695 1.862 1.862 0 0 0-.98-.253c-.399 0-.749.097-1.05.29a2.007 2.007 0 0 0-.706.755A2.17 2.17 0 0 0 75 29.052v1.146c0 .482.088.895.264 1.24.176.34.421.602.737.785.316.18.686.27 1.11.27.284 0 .54-.04.77-.119.23-.082.429-.203.598-.36.168-.159.296-.354.382-.588l1.82.205a2.838 2.838 0 0 1-.657 1.26c-.32.356-.729.632-1.228.83-.499.193-1.07.29-1.712.29Zm8.935 0c-.825 0-1.534-.181-2.127-.544a3.634 3.634 0 0 1-1.362-1.502c-.316-.643-.474-1.382-.474-2.219 0-.84.161-1.581.484-2.224a3.617 3.617 0 0 1 1.368-1.508c.593-.362 1.293-.544 2.1-.544.672 0 1.266.124 1.783.372.52.244.935.59 1.244 1.04.309.444.485.965.528 1.56H87.7a1.78 1.78 0 0 0-.539-.995c-.28-.27-.655-.404-1.126-.404a1.76 1.76 0 0 0-1.05.323c-.301.212-.536.517-.705.915-.165.399-.248.876-.248 1.433 0 .564.083 1.048.248 1.454.165.402.397.713.695.931.301.216.655.324 1.06.324.288 0 .544-.054.77-.162.23-.111.422-.271.577-.48.154-.207.26-.46.318-.758h1.863a3.249 3.249 0 0 1-.517 1.556c-.298.449-.704.8-1.217 1.055-.514.252-1.117.377-1.81.377Zm9.275-8.433v1.508H90.54v-1.508h4.755Zm-3.581-1.982h1.95v7.766c0 .262.039.463.118.603a.64.64 0 0 0 .323.28c.133.05.28.075.442.075.122 0 .233-.009.333-.027.105-.018.184-.034.237-.048l.329 1.524a4.352 4.352 0 0 1-.447.118 3.66 3.66 0 0 1-.7.076 3.177 3.177 0 0 1-1.32-.221 2.052 2.052 0 0 1-.931-.765c-.226-.344-.338-.775-.334-1.292v-8.089Zm18.5 2.946h-2.015a2.505 2.505 0 0 0-.317-.878 2.385 2.385 0 0 0-.576-.657 2.4 2.4 0 0 0-.787-.404 3.066 3.066 0 0 0-.942-.14c-.6 0-1.131.151-1.594.453-.463.298-.826.736-1.088 1.314-.262.574-.393 1.276-.393 2.105 0 .844.131 1.555.393 2.133.266.574.628 1.009 1.088 1.303.463.29.993.436 1.588.436.331 0 .64-.043.927-.129.291-.09.551-.22.781-.393a2.407 2.407 0 0 0 .92-1.497l2.015.01a4.357 4.357 0 0 1-.49 1.476c-.248.46-.573.865-.975 1.217a4.5 4.5 0 0 1-1.411.819 5.263 5.263 0 0 1-1.793.29c-.97 0-1.835-.224-2.596-.673-.761-.448-1.361-1.096-1.799-1.944-.438-.847-.657-1.863-.657-3.048 0-1.188.221-2.204.663-3.048.441-.847 1.043-1.495 1.804-1.944.761-.449 1.622-.673 2.585-.673a5.49 5.49 0 0 1 1.712.258c.528.173.998.426 1.411.76.413.33.752.736 1.018 1.217.269.477.445 1.023.528 1.637Zm5.351 7.469c-.808 0-1.508-.177-2.1-.533a3.625 3.625 0 0 1-1.379-1.492c-.323-.639-.484-1.385-.484-2.24 0-.854.161-1.603.484-2.245a3.618 3.618 0 0 1 1.379-1.498c.592-.355 1.292-.533 2.1-.533s1.508.178 2.1.533a3.575 3.575 0 0 1 1.374 1.497c.326.643.49 1.392.49 2.246 0 .855-.164 1.601-.49 2.24a3.581 3.581 0 0 1-1.374 1.492c-.592.356-1.292.533-2.1.533Zm.011-1.562c.438 0 .804-.12 1.098-.36.295-.244.514-.571.657-.98a4 4 0 0 0 .221-1.368c0-.506-.073-.964-.221-1.373a2.164 2.164 0 0 0-.657-.986c-.294-.244-.66-.366-1.098-.366-.449 0-.822.122-1.12.366-.295.244-.515.573-.663.985-.143.41-.215.868-.215 1.374 0 .502.072.958.215 1.368.148.409.368.736.663.98.298.24.671.36 1.12.36Zm12.145-4.685-1.777.194a1.418 1.418 0 0 0-.264-.506 1.31 1.31 0 0 0-.495-.382 1.811 1.811 0 0 0-.765-.146c-.406 0-.747.088-1.023.264-.273.176-.408.404-.404.684a.713.713 0 0 0 .264.587c.183.15.484.275.904.372l1.411.301c.783.169 1.365.436 1.745.803.384.366.578.845.582 1.438a2.25 2.25 0 0 1-.458 1.378c-.298.395-.713.704-1.244.926-.531.223-1.142.334-1.831.334-1.012 0-1.827-.212-2.445-.635-.617-.427-.985-1.022-1.104-1.783l1.901-.183c.086.374.269.655.549.846.28.19.645.285 1.094.285.463 0 .834-.095 1.114-.285.284-.19.426-.426.426-.706a.735.735 0 0 0-.275-.587c-.179-.154-.459-.273-.84-.355l-1.411-.296c-.793-.166-1.38-.444-1.761-.835-.38-.395-.569-.894-.565-1.497-.004-.51.134-.952.414-1.325.284-.377.677-.668 1.18-.872.506-.209 1.089-.313 1.75-.313.969 0 1.732.207 2.289.62.56.412.906.97 1.039 1.674Zm5.916-2.186v1.508h-4.756v-1.508h4.756Zm-3.582-1.982h1.95v7.766c0 .262.039.463.118.603.083.136.191.23.324.28.132.05.28.075.441.075.122 0 .233-.009.334-.027a3.17 3.17 0 0 0 .237-.048l.328 1.524a4.338 4.338 0 0 1-.447.118 3.56 3.56 0 0 1-.7.076 3.176 3.176 0 0 1-1.319-.221 2.056 2.056 0 0 1-.932-.765c-.226-.344-.337-.775-.334-1.292v-8.089Z" fill="#fff"/><circle cx="25.275" cy="28.645" r="5.055" fill="#42946E"/><path d="M375.479 42.654V28.867h.883v13.787h-.883Zm2.547-9.376a1.468 1.468 0 0 0-.636-1.099c-.369-.262-.85-.393-1.443-.393-.416 0-.773.063-1.071.189a1.587 1.587 0 0 0-.684.511 1.247 1.247 0 0 0-.243.738c0 .23.052.43.156.598.108.169.254.312.437.43.183.116.386.212.608.291.223.08.447.146.673.2l1.034.258c.417.097.817.228 1.201.393.388.166.734.374 1.04.625.308.251.552.555.732.91.179.356.269.772.269 1.25 0 .646-.165 1.215-.495 1.707-.331.488-.808.87-1.433 1.147-.621.273-1.373.409-2.256.409-.858 0-1.603-.133-2.235-.398-.628-.266-1.12-.654-1.476-1.164-.351-.51-.542-1.13-.57-1.863h1.965c.029.384.147.704.356.958.208.255.479.446.813.571a3.21 3.21 0 0 0 1.131.189c.434 0 .815-.065 1.141-.194.331-.133.589-.316.776-.55.187-.236.282-.513.285-.829a1.052 1.052 0 0 0-.253-.71 1.854 1.854 0 0 0-.694-.474 6.764 6.764 0 0 0-1.034-.345l-1.255-.323c-.909-.233-1.627-.587-2.154-1.061-.524-.477-.787-1.111-.787-1.901 0-.65.176-1.219.528-1.707.356-.488.838-.867 1.449-1.136.61-.273 1.301-.41 2.073-.41.783 0 1.469.137 2.057.41.593.269 1.058.644 1.395 1.125.338.478.512 1.027.522 1.648h-1.922Zm11.994-3.032v11.029h-1.998V32.19h-.064l-2.58 1.648v-1.831l2.741-1.76h1.901Zm3.416 11.148c-.327 0-.607-.115-.84-.345a1.113 1.113 0 0 1-.345-.84 1.1 1.1 0 0 1 .345-.83c.233-.23.513-.344.84-.344.316 0 .59.115.824.344a1.134 1.134 0 0 1 .188 1.428 1.224 1.224 0 0 1-.431.43 1.119 1.119 0 0 1-.581.157Zm6.842-11.299a4.53 4.53 0 0 1 1.54.28c.503.18.955.474 1.357.884.402.405.722.95.959 1.631.237.682.355 1.526.355 2.531.004.948-.097 1.795-.302 2.542-.201.743-.49 1.371-.867 1.885a3.827 3.827 0 0 1-1.362 1.174c-.531.27-1.129.404-1.793.404-.697 0-1.314-.137-1.853-.41a3.485 3.485 0 0 1-1.298-1.12 3.559 3.559 0 0 1-.608-1.626h1.965c.101.438.306.786.614 1.045.313.255.706.382 1.18.382.764 0 1.353-.332 1.766-.996.413-.664.619-1.587.619-2.768h-.075a2.833 2.833 0 0 1-.684.818c-.28.227-.598.4-.953.523a3.392 3.392 0 0 1-1.12.183 3.336 3.336 0 0 1-1.745-.463 3.381 3.381 0 0 1-1.223-1.271c-.298-.539-.448-1.154-.452-1.847 0-.718.165-1.363.495-1.934a3.597 3.597 0 0 1 1.395-1.357c.596-.334 1.293-.497 2.09-.49Zm.005 1.616c-.388 0-.738.095-1.05.285a2.018 2.018 0 0 0-.732.765c-.176.32-.264.677-.264 1.072.003.39.091.746.264 1.066.176.32.414.572.716.76.305.186.653.28 1.045.28a1.99 1.99 0 0 0 1.47-.63c.19-.202.337-.43.441-.685.108-.255.16-.524.157-.808 0-.377-.09-.725-.27-1.044a2.078 2.078 0 0 0-.727-.77 1.916 1.916 0 0 0-1.05-.291Zm10.038 9.715a4.651 4.651 0 0 1-1.545-.275 3.63 3.63 0 0 1-1.357-.888c-.403-.413-.722-.96-.959-1.643-.237-.686-.354-1.535-.35-2.547 0-.944.1-1.786.302-2.526.201-.74.49-1.364.867-1.874a3.827 3.827 0 0 1 1.362-1.174 3.932 3.932 0 0 1 1.793-.404c.693 0 1.307.137 1.842.41.539.272.973.646 1.303 1.12.331.47.535 1.001.614 1.594h-1.965a1.785 1.785 0 0 0-.62-1.013c-.308-.255-.7-.382-1.174-.382-.764 0-1.353.332-1.766.996-.409.664-.616 1.576-.619 2.736h.075c.176-.316.404-.587.684-.813.28-.227.596-.4.948-.523.355-.125.73-.188 1.125-.188a3.314 3.314 0 0 1 2.968 1.74c.301.538.45 1.155.447 1.852.003.725-.162 1.377-.496 1.955a3.597 3.597 0 0 1-1.395 1.357c-.596.33-1.29.493-2.084.49Zm-.011-1.616c.392 0 .742-.095 1.051-.285.308-.19.552-.447.732-.77.179-.323.267-.686.264-1.088a2.148 2.148 0 0 0-.259-1.072 1.967 1.967 0 0 0-.716-.76 1.96 1.96 0 0 0-1.045-.28 1.986 1.986 0 0 0-1.47.631c-.187.194-.334.42-.441.678a2.208 2.208 0 0 0-.162.82c.004.383.093.737.269 1.06.176.323.419.582.727.775.309.194.659.291 1.05.291Z" fill="#868593"/><path d="M270.783 42.654V28.867h.883v13.787h-.883Zm2.547-9.376a1.47 1.47 0 0 0-.635-1.099c-.37-.262-.851-.393-1.444-.393-.416 0-.773.063-1.071.189a1.587 1.587 0 0 0-.684.511 1.247 1.247 0 0 0-.243.738c0 .23.052.43.157.598.107.169.253.312.436.43.183.116.386.212.608.291.223.08.447.146.673.2l1.034.258c.417.097.817.228 1.201.393.388.166.734.374 1.04.625.308.251.553.555.732.91.18.356.269.772.269 1.25 0 .646-.165 1.215-.495 1.707-.33.488-.808.87-1.433 1.147-.621.273-1.373.409-2.256.409-.858 0-1.603-.133-2.235-.398-.628-.266-1.12-.654-1.475-1.164-.352-.51-.543-1.13-.571-1.863h1.965c.029.384.147.704.356.958.208.255.479.446.813.571a3.21 3.21 0 0 0 1.131.189c.434 0 .815-.065 1.141-.194.331-.133.589-.316.776-.55.187-.236.282-.513.285-.829a1.052 1.052 0 0 0-.253-.71 1.85 1.85 0 0 0-.694-.474 6.727 6.727 0 0 0-1.034-.345l-1.255-.323c-.908-.233-1.627-.587-2.154-1.061-.524-.477-.787-1.111-.787-1.901 0-.65.176-1.219.528-1.707.356-.488.839-.867 1.449-1.136.61-.273 1.301-.41 2.073-.41.783 0 1.469.137 2.057.41.593.269 1.058.644 1.395 1.125.338.478.512 1.027.522 1.648h-1.922Zm11.585 8.207c-.887 0-1.648-.224-2.283-.673-.632-.453-1.119-1.104-1.46-1.955-.337-.854-.506-1.883-.506-3.086.004-1.202.174-2.226.512-3.07.341-.847.827-1.493 1.459-1.938.635-.445 1.395-.668 2.278-.668s1.642.223 2.278.668c.635.445 1.122 1.091 1.459 1.939.341.847.512 1.87.512 3.07 0 1.206-.171 2.236-.512 3.09-.337.851-.824 1.501-1.459 1.95-.632.449-1.391.673-2.278.673Zm0-1.685c.689 0 1.233-.34 1.632-1.018.402-.682.603-1.686.603-3.01 0-.877-.092-1.613-.275-2.209-.183-.596-.441-1.044-.775-1.346a1.698 1.698 0 0 0-1.185-.458c-.686 0-1.228.341-1.626 1.023-.399.679-.6 1.675-.604 2.99-.003.879.085 1.619.264 2.218.183.6.442 1.052.776 1.357.334.302.73.453 1.19.453Zm6.831 1.594c-.327 0-.607-.115-.84-.345a1.12 1.12 0 0 1-.345-.84 1.11 1.11 0 0 1 .345-.83c.233-.23.513-.344.84-.344.316 0 .591.115.824.344a1.134 1.134 0 0 1 .189 1.428 1.24 1.24 0 0 1-.431.43c-.176.104-.37.157-.582.157Zm3.176-.119v-1.443l3.829-3.754c.366-.37.671-.698.915-.985.245-.287.428-.566.55-.835.122-.27.183-.556.183-.862 0-.348-.079-.646-.237-.894a1.573 1.573 0 0 0-.652-.581 2.097 2.097 0 0 0-.942-.205c-.363 0-.68.076-.953.226a1.558 1.558 0 0 0-.636.63c-.147.273-.221.598-.221.975h-1.901c0-.7.16-1.308.48-1.825a3.23 3.23 0 0 1 1.319-1.201c.564-.284 1.21-.426 1.939-.426.739 0 1.389.139 1.949.415.56.276.995.655 1.303 1.136.313.481.469 1.03.469 1.648 0 .413-.079.819-.237 1.217-.158.399-.436.84-.835 1.325-.395.485-.949 1.072-1.664 1.76l-1.901 1.934v.076h4.804v1.669h-7.561Zm13.458.151a4.662 4.662 0 0 1-1.546-.275 3.639 3.639 0 0 1-1.357-.888c-.402-.413-.721-.96-.958-1.643-.237-.686-.354-1.535-.35-2.547 0-.944.1-1.786.301-2.526.201-.74.49-1.364.867-1.874A3.821 3.821 0 0 1 306.7 30.5a3.93 3.93 0 0 1 1.793-.404c.693 0 1.307.137 1.842.41a3.47 3.47 0 0 1 1.303 1.12c.33.47.535 1.001.614 1.594h-1.966a1.783 1.783 0 0 0-.619-1.013c-.309-.255-.7-.382-1.174-.382-.765 0-1.354.332-1.766.996-.41.664-.616 1.576-.62 2.736h.076c.176-.316.404-.587.684-.813.28-.227.596-.4.947-.523a3.355 3.355 0 0 1 1.126-.188c.646 0 1.226.154 1.739.463.517.309.927.734 1.228 1.276.302.539.451 1.156.447 1.853.004.725-.161 1.377-.495 1.955a3.597 3.597 0 0 1-1.395 1.357c-.596.33-1.291.493-2.084.49Zm-.011-1.616c.391 0 .741-.095 1.05-.285a2.07 2.07 0 0 0 .733-.77c.179-.323.267-.686.263-1.088a2.137 2.137 0 0 0-.258-1.072 1.967 1.967 0 0 0-.716-.76 1.963 1.963 0 0 0-1.045-.28 2.006 2.006 0 0 0-1.47.63 2.172 2.172 0 0 0-.603 1.498c.003.384.093.738.269 1.061.176.323.418.582.727.775.309.194.659.291 1.05.291Z" fill="#fff"/><g clip-path="url(#8hii3un3gb)"><path d="M217.927 30.309c-.101-.297-.365-.504-.708-.553a1.671 1.671 0 0 0-.565.03 5.22 5.22 0 0 1-.87.111c.779-1.275 1.413-2.73 1.777-4.099.59-2.214.275-3.222-.093-3.678-.975-1.208-2.397-1.857-4.112-1.876a7.503 7.503 0 0 0-2.138.29 8.186 8.186 0 0 0-1.25-.111c-.825-.013-1.554.162-2.177.52a10.186 10.186 0 0 0-1.537-.374c-1.504-.24-2.716-.053-3.602.554-1.073.735-1.571 2.012-1.479 3.796.029.566.356 2.29.871 3.924.295.939.611 1.719.937 2.318.462.85.957 1.35 1.513 1.53.311.1.877.171 1.472-.31.075.09.176.177.31.259.169.104.377.188.584.239.746.18 1.445.135 2.042-.118l.009.286.013.399c.035.853.095 1.517.273 1.981l.036.106c.089.263.237.703.613 1.047.39.357.862.467 1.294.467.217 0 .424-.028.605-.066.646-.134 1.38-.339 1.911-1.072.502-.693.746-1.737.791-3.382l.016-.133.01-.087.119.01.03.002c.658.03 1.463-.106 1.958-.329.39-.175 1.642-.816 1.347-1.681" fill="#000"/><path d="M216.802 30.477c-1.958.392-2.092-.251-2.092-.251 2.066-2.973 2.93-6.748 2.185-7.672-2.034-2.52-5.555-1.328-5.614-1.297l-.019.003a7.184 7.184 0 0 0-1.306-.132c-.886-.014-1.557.226-2.067.6 0 0-6.281-2.509-5.989 3.156.062 1.205 1.781 9.118 3.832 6.728a36.962 36.962 0 0 1 1.473-1.613c.36.232.791.35 1.242.307l.035-.029a1.28 1.28 0 0 0 .014.34c-.528.573-.373.674-1.429.884-1.069.214-.441.594-.031.693.497.12 1.646.291 2.423-.763l-.031.12c.207.161.352 1.046.328 1.848-.024.802-.041 1.353.122 1.783.164.43.326 1.398 1.714 1.11 1.16-.241 1.762-.866 1.845-1.908.059-.74.194-.631.202-1.293l.108-.314c.124-1.004.02-1.328.734-1.177l.174.015c.526.023 1.214-.082 1.619-.264.87-.392 1.386-1.046.528-.874" fill="#336791"/><path d="M208.256 25.423c-.176-.024-.336-.002-.417.057a.149.149 0 0 0-.063.099c-.01.07.041.148.072.189a.549.549 0 0 0 .346.209.421.421 0 0 0 .056.004c.213 0 .407-.162.425-.28.021-.15-.202-.25-.419-.278Zm5.844.004c-.017-.116-.231-.15-.435-.122-.203.027-.4.116-.384.233.014.091.183.247.384.247a.495.495 0 0 0 .33-.152c.071-.072.113-.153.105-.206" fill="#fff"/><path d="M217.453 30.433c-.074-.22-.315-.29-.714-.21-1.185.238-1.609.073-1.749-.026.921-1.36 1.679-3.006 2.088-4.54.194-.727.301-1.402.309-1.952.01-.604-.096-1.048-.315-1.32-.882-1.092-2.177-1.678-3.744-1.694-1.077-.012-1.987.255-2.164.33a5.56 5.56 0 0 0-1.218-.151c-.809-.013-1.508.175-2.086.557a9.573 9.573 0 0 0-1.696-.43c-1.374-.215-2.466-.053-3.245.483-.929.638-1.359 1.78-1.275 3.392.028.543.346 2.212.849 3.81.663 2.104 1.383 3.295 2.14 3.54a.987.987 0 0 0 .304.048c.276 0 .615-.12.967-.531.43-.5.875-.988 1.334-1.463.298.154.625.241.959.25l.003.025a6.473 6.473 0 0 0-.169.203c-.232.285-.281.345-1.027.493-.212.043-.776.156-.784.539-.009.419.666.594.743.613.268.065.527.097.773.097.599 0 1.127-.19 1.548-.56-.013 1.492.051 2.963.236 3.41.151.368.521 1.264 1.689 1.264.172 0 .36-.02.568-.062 1.219-.254 1.748-.776 1.953-1.928.11-.615.298-2.085.386-2.874.187.057.427.083.687.083.542 0 1.167-.112 1.559-.288.44-.199 1.235-.686 1.091-1.108Zm-2.903-5.328a4.643 4.643 0 0 1-.072.665 5.78 5.78 0 0 0-.086.78c-.01.29.027.59.063.882.073.588.148 1.194-.142 1.792a2.253 2.253 0 0 1-.128-.256 4.99 4.99 0 0 0-.222-.409c-.422-.732-1.408-2.447-.903-3.147.15-.208.532-.422 1.49-.307Zm-1.161-3.943c1.404.03 2.515.54 3.301 1.514.603.747-.061 4.148-1.984 7.082a3.122 3.122 0 0 0-.058-.072l-.024-.03c.497-.795.399-1.582.313-2.28a5.32 5.32 0 0 1-.061-.811c.009-.27.046-.5.081-.724.044-.275.089-.56.076-.896a.359.359 0 0 0 .008-.126c-.031-.322-.41-1.285-1.183-2.157a5.306 5.306 0 0 0-1.881-1.371 6.576 6.576 0 0 1 1.412-.13Zm-7.858 10.276c-.388.453-.656.366-.744.338-.575-.186-1.242-1.364-1.83-3.231-.508-1.616-.805-3.24-.829-3.696-.074-1.441.286-2.445 1.071-2.985 1.277-.878 3.377-.353 4.22-.086l-.036.034c-1.385 1.356-1.352 3.672-1.349 3.814 0 .054.005.132.011.238.024.39.069 1.115-.05 1.936a2.401 2.401 0 0 0 .838 2.207c-.237.246-.753.79-1.302 1.431Zm1.48-1.914a1.939 1.939 0 0 1-.535-1.659c.125-.867.079-1.623.054-2.029a7.736 7.736 0 0 1-.009-.145c.203-.174 1.14-.661 1.808-.513.305.068.491.27.569.616.399 1.793.052 2.54-.226 3.142a5.26 5.26 0 0 0-.158.361l-.036.094c-.091.236-.176.456-.228.665a1.752 1.752 0 0 1-1.239-.532Zm.07 2.419a1.105 1.105 0 0 1-.324-.135c.059-.027.164-.064.345-.1.878-.175 1.014-.299 1.31-.663.067-.084.144-.179.251-.294.159-.172.231-.143.363-.09.107.043.211.172.253.315.02.067.042.195-.031.295-.619.84-1.52.829-2.167.672Zm4.594 4.145c-1.074.223-1.454-.308-1.705-.916-.161-.392-.241-2.16-.184-4.113a.231.231 0 0 0-.011-.074.823.823 0 0 0-.03-.138c-.084-.285-.288-.522-.533-.62a.763.763 0 0 0-.491-.058c.046-.183.125-.39.211-.614l.036-.094a5.66 5.66 0 0 1 .146-.332c.292-.629.691-1.49.258-3.435-.163-.728-.705-1.084-1.528-1.001a3.604 3.604 0 0 0-1.303.422c.063-.734.3-2.106 1.188-2.973.559-.547 1.303-.817 2.209-.802 1.787.028 2.932.917 3.579 1.658a5.24 5.24 0 0 1 .979 1.628c-.906-.09-1.521.084-1.833.517-.68.94.371 2.768.876 3.645.093.161.172.3.198.36.164.386.377.644.532.832.048.058.094.114.129.163-.274.076-.766.253-.722 1.139-.036.444-.293 2.524-.424 3.258-.173.97-.541 1.332-1.577 1.548Zm4.483-4.974c-.281.126-.75.22-1.196.241-.492.023-.743-.053-.802-.1-.027-.552.185-.61.409-.67l.102-.03.068.048c.396.253 1.102.28 2.098.08l.011-.001a2.684 2.684 0 0 1-.69.432Z" fill="#fff"/></g><path d="M258.759 16.055h-.89a1.852 1.852 0 0 0-.75-1.163 2.018 2.018 0 0 0-.614-.302c-.225-.067-.46-.1-.704-.1-.445 0-.848.112-1.21.337-.359.225-.645.557-.858.995-.211.438-.316.975-.316 1.612 0 .636.105 1.174.316 1.612.213.438.499.77.858.994.362.225.765.338 1.21.338.244 0 .479-.034.704-.101.225-.067.429-.166.614-.298a1.896 1.896 0 0 0 .75-1.167h.89a2.967 2.967 0 0 1-.366 1.009 2.746 2.746 0 0 1-1.547 1.228 3.31 3.31 0 0 1-1.045.161c-.627 0-1.185-.153-1.673-.46-.488-.305-.872-.741-1.152-1.306-.281-.565-.421-1.235-.421-2.01 0-.776.14-1.446.421-2.01.28-.566.664-1.001 1.152-1.308a3.084 3.084 0 0 1 1.673-.46c.371 0 .719.055 1.045.162.328.108.623.266.886.474.264.206.484.457.661.754.177.295.299.63.366 1.009Zm4.799 2.8v-3.26h.848v5.515h-.848v-.933h-.057c-.129.28-.33.518-.603.714-.273.194-.618.29-1.034.29a1.84 1.84 0 0 1-.919-.226 1.582 1.582 0 0 1-.632-.689c-.153-.308-.23-.697-.23-1.167v-3.504h.847v3.447c0 .402.113.723.338.962.227.24.517.36.869.36.21 0 .425-.055.642-.162.221-.108.405-.273.553-.496.151-.222.226-.506.226-.85Zm2.4 2.255v-5.515h.818v.833h.058c.1-.273.282-.494.545-.664.264-.17.56-.255.891-.255a9.33 9.33 0 0 1 .445.015v.861a2.558 2.558 0 0 0-.198-.032 1.942 1.942 0 0 0-.319-.025c-.268 0-.508.056-.718.169a1.27 1.27 0 0 0-.496.46 1.244 1.244 0 0 0-.179.663v3.49h-.847Zm3.761 0v-5.515h.819v.833h.057c.101-.273.283-.494.546-.664.263-.17.56-.255.89-.255a9.47 9.47 0 0 1 .445.015v.861a2.414 2.414 0 0 0-.197-.032 1.955 1.955 0 0 0-.32-.025c-.268 0-.507.056-.718.169a1.236 1.236 0 0 0-.675 1.124v3.489h-.847Zm5.906.115c-.531 0-.99-.117-1.375-.352a2.36 2.36 0 0 1-.887-.99c-.206-.427-.309-.922-.309-1.487 0-.565.103-1.063.309-1.494.208-.433.498-.77.869-1.012.373-.244.809-.366 1.307-.366.287 0 .571.048.851.143a2.1 2.1 0 0 1 .764.467c.23.213.413.495.55.847.136.352.204.785.204 1.3v.359h-4.25v-.733h3.389c0-.31-.063-.588-.187-.832a1.408 1.408 0 0 0-.524-.578 1.468 1.468 0 0 0-.797-.212c-.338 0-.63.084-.876.251-.244.165-.432.38-.564.646-.132.266-.197.55-.197.855v.488c0 .417.071.77.215 1.06.146.286.348.505.607.656.258.149.559.223.901.223.223 0 .424-.031.603-.094.182-.064.339-.16.47-.287.132-.13.234-.29.306-.481l.818.23a1.817 1.817 0 0 1-.434.732 2.125 2.125 0 0 1-.754.488 2.797 2.797 0 0 1-1.009.173Zm4.419-3.432v3.317h-.847v-5.515h.819v.862h.072c.129-.28.325-.505.588-.675.264-.172.603-.258 1.02-.258.373 0 .7.076.98.23.28.15.498.38.653.689.156.306.234.694.234 1.163v3.504h-.847v-3.447c0-.433-.113-.77-.338-1.012-.225-.244-.534-.366-.926-.366-.271 0-.512.058-.725.176a1.256 1.256 0 0 0-.499.513c-.123.225-.184.498-.184.819Zm7.465-2.198v.719h-2.857v-.719h2.857Zm-2.025-1.32h.848v5.255c0 .24.034.42.104.539a.541.541 0 0 0 .273.237 1.1 1.1 0 0 0 .355.057c.093 0 .17-.005.23-.014l.143-.029.173.761a1.753 1.753 0 0 1-.241.065 1.77 1.77 0 0 1-.391.036c-.239 0-.474-.052-.704-.155a1.401 1.401 0 0 1-.567-.47c-.148-.21-.223-.476-.223-.797v-5.486Zm12.175 1.78h-.891a1.85 1.85 0 0 0-.75-1.163 2.007 2.007 0 0 0-.614-.302 2.45 2.45 0 0 0-.704-.1c-.445 0-.848.112-1.21.337-.359.225-.645.557-.858.995-.21.438-.315.975-.315 1.612 0 .636.105 1.174.315 1.612.213.438.499.77.858.994.362.225.765.338 1.21.338.245 0 .479-.034.704-.101.225-.067.43-.166.614-.298a1.883 1.883 0 0 0 .75-1.167h.891a2.947 2.947 0 0 1-.367 1.009 2.76 2.76 0 0 1-1.547 1.228 3.305 3.305 0 0 1-1.045.161c-.627 0-1.184-.153-1.673-.46-.488-.305-.872-.741-1.152-1.306-.28-.565-.42-1.235-.42-2.01 0-.776.14-1.446.42-2.01.28-.566.664-1.001 1.152-1.308a3.087 3.087 0 0 1 1.673-.46c.371 0 .72.055 1.045.162.328.108.624.266.887.474.263.206.483.457.66.754.178.295.3.63.367 1.009Zm3.564 5.17c-.498 0-.935-.119-1.311-.356a2.42 2.42 0 0 1-.876-.994c-.208-.426-.312-.924-.312-1.494 0-.574.104-1.076.312-1.504.211-.428.503-.761.876-.998.376-.237.813-.355 1.311-.355s.933.118 1.307.355c.375.237.667.57.876.998.21.428.316.93.316 1.504 0 .57-.106 1.068-.316 1.494a2.393 2.393 0 0 1-.876.994c-.374.237-.809.356-1.307.356Zm0-.761c.378 0 .689-.097.933-.291.244-.194.425-.449.542-.765.118-.316.176-.658.176-1.027a2.94 2.94 0 0 0-.176-1.03 1.736 1.736 0 0 0-.542-.772c-.244-.196-.555-.294-.933-.294s-.69.098-.934.294a1.744 1.744 0 0 0-.542.772 2.964 2.964 0 0 0-.176 1.03c0 .369.059.711.176 1.027.118.316.298.571.542.765.244.194.556.29.934.29Zm7.698-3.634-.761.216a1.427 1.427 0 0 0-.212-.37 1.027 1.027 0 0 0-.373-.301 1.359 1.359 0 0 0-.607-.119c-.338 0-.619.078-.844.233-.222.154-.334.349-.334.586 0 .21.077.377.23.499.153.122.393.223.718.305l.819.2c.493.12.86.304 1.102.55.242.244.363.559.363.944a1.4 1.4 0 0 1-.273.848c-.18.248-.431.445-.754.588a2.755 2.755 0 0 1-1.128.216c-.562 0-1.028-.122-1.396-.366-.369-.245-.602-.601-.7-1.07l.804-.201c.077.296.221.52.434.668.216.148.497.222.844.222.395 0 .709-.084.941-.251.234-.17.352-.374.352-.61a.642.642 0 0 0-.202-.482c-.134-.131-.339-.23-.617-.294l-.919-.216c-.505-.12-.876-.305-1.113-.556-.235-.254-.352-.57-.352-.951 0-.311.087-.587.262-.826.177-.24.418-.427.722-.564a2.53 2.53 0 0 1 1.041-.204c.546 0 .974.12 1.285.359.314.239.536.555.668.947Zm3.774-1.235v.719h-2.858v-.719h2.858Zm-2.025-1.32h.848v5.255c0 .24.034.42.104.539a.533.533 0 0 0 .273.237 1.1 1.1 0 0 0 .355.057c.093 0 .17-.005.23-.014l.143-.029.173.761a1.753 1.753 0 0 1-.241.065 1.77 1.77 0 0 1-.391.036c-.24 0-.474-.052-.704-.155a1.401 1.401 0 0 1-.567-.47c-.149-.21-.223-.476-.223-.797v-5.486Z" fill="#fff"/><path d="M368.369 21.11v-7.353h4.438v.79h-3.547v2.485h3.317v.79h-3.317v2.498h3.604v.79h-4.495Zm9.834-4.28-.761.216a1.427 1.427 0 0 0-.212-.37 1.03 1.03 0 0 0-.374-.301 1.354 1.354 0 0 0-.606-.119c-.338 0-.619.078-.844.233-.223.154-.334.349-.334.586 0 .21.077.377.23.499.153.122.392.223.718.305l.818.2c.493.12.861.304 1.103.55.241.244.362.56.362.944a1.4 1.4 0 0 1-.273.848 1.8 1.8 0 0 1-.754.588 2.75 2.75 0 0 1-1.127.216c-.562 0-1.028-.122-1.396-.366-.369-.244-.602-.601-.701-1.07l.805-.201c.076.297.221.52.434.668.215.148.497.222.844.222.395 0 .708-.084.94-.251.235-.17.352-.374.352-.61a.642.642 0 0 0-.201-.482c-.134-.131-.34-.23-.617-.294l-.919-.215c-.505-.12-.876-.306-1.113-.557-.235-.254-.352-.57-.352-.951 0-.311.087-.587.262-.826.177-.24.418-.427.722-.564a2.53 2.53 0 0 1 1.041-.204c.545 0 .974.12 1.285.359.313.24.536.555.668.948Zm3.774-1.235v.719h-2.858v-.719h2.858Zm-2.025-1.32h.847v5.255c0 .24.035.42.104.539a.541.541 0 0 0 .273.237c.113.038.231.057.356.057.093 0 .17-.005.229-.014l.144-.029.172.761a1.776 1.776 0 0 1-.631.1c-.24 0-.474-.05-.704-.154a1.388 1.388 0 0 1-.567-.47c-.149-.21-.223-.476-.223-.797v-5.486Zm3.299 6.835v-5.514h.848v5.514h-.848Zm.431-6.434a.603.603 0 0 1-.427-.168.543.543 0 0 1-.176-.406c0-.158.059-.293.176-.406a.603.603 0 0 1 .427-.168.59.59 0 0 1 .424.168c.12.113.179.248.179.406a.535.535 0 0 1-.179.406.59.59 0 0 1-.424.168Zm1.968 6.434v-5.514h.819v.861h.072c.115-.294.3-.523.556-.686.256-.165.564-.247.923-.247.364 0 .667.082.908.247.244.163.435.392.571.686h.058c.141-.285.353-.51.635-.678.282-.17.621-.255 1.016-.255.493 0 .896.154 1.21.463.313.306.47.784.47 1.432v3.691h-.847v-3.69c0-.408-.111-.698-.334-.873a1.235 1.235 0 0 0-.786-.262c-.388 0-.688.117-.901.352-.213.232-.32.526-.32.883v3.59h-.861v-3.777c0-.313-.102-.566-.306-.757-.203-.194-.465-.291-.786-.291-.22 0-.426.058-.617.176-.189.117-.343.28-.46.488a1.44 1.44 0 0 0-.172.714v3.447h-.848Zm10.41.13a2.25 2.25 0 0 1-.951-.198 1.636 1.636 0 0 1-.679-.578c-.167-.254-.251-.56-.251-.92 0-.315.062-.571.187-.768.124-.198.29-.354.499-.466a2.62 2.62 0 0 1 .689-.252c.254-.057.509-.102.765-.136.335-.043.606-.076.815-.097.21-.024.363-.063.459-.119.098-.055.147-.15.147-.287v-.028c0-.355-.097-.63-.29-.826-.192-.196-.483-.295-.873-.295-.404 0-.721.089-.951.266-.23.177-.392.366-.485.567l-.804-.287c.143-.335.335-.596.574-.782.242-.19.505-.321.79-.395a3.28 3.28 0 0 1 .847-.115c.178 0 .381.021.611.064.232.041.456.126.671.255.218.13.399.325.542.585.144.261.216.61.216 1.049v3.633h-.848v-.747h-.043c-.057.12-.153.248-.287.384a1.653 1.653 0 0 1-.535.349 2.057 2.057 0 0 1-.815.143Zm.129-.762c.335 0 .618-.066.848-.197a1.344 1.344 0 0 0 .703-1.167v-.776c-.036.043-.115.083-.237.119a3.943 3.943 0 0 1-.416.09 19.483 19.483 0 0 1-.811.107 3.237 3.237 0 0 0-.618.14 1.06 1.06 0 0 0-.459.284c-.115.124-.173.294-.173.51 0 .294.109.517.327.668.22.148.499.222.836.222Zm6.343-4.883v.719h-2.857v-.719h2.857Zm-2.025-1.32h.848v5.255c0 .24.034.42.104.539a.541.541 0 0 0 .273.237 1.1 1.1 0 0 0 .355.057c.093 0 .17-.005.23-.014l.144-.029.172.761a1.753 1.753 0 0 1-.241.065 1.77 1.77 0 0 1-.391.036 1.71 1.71 0 0 1-.704-.155 1.401 1.401 0 0 1-.567-.47c-.148-.21-.223-.476-.223-.797v-5.486Zm5.553 6.95c-.532 0-.99-.117-1.375-.352a2.36 2.36 0 0 1-.887-.99c-.206-.427-.309-.922-.309-1.487 0-.565.103-1.063.309-1.494.208-.433.498-.77.869-1.012.373-.244.809-.366 1.306-.366.288 0 .571.048.851.143.28.096.535.252.765.467.23.213.413.495.549.847.137.352.205.785.205 1.3v.359h-4.251v-.732h3.389c0-.312-.062-.59-.186-.833a1.409 1.409 0 0 0-1.322-.79c-.337 0-.629.084-.876.251-.244.165-.432.38-.563.646-.132.266-.198.55-.198.855v.488c0 .417.072.77.216 1.06.146.286.348.505.607.656.258.149.558.223.901.223.222 0 .423-.031.603-.094.182-.064.338-.16.47-.287.132-.129.233-.29.305-.48l.819.229a1.808 1.808 0 0 1-.435.732 2.107 2.107 0 0 1-.754.489 2.794 2.794 0 0 1-1.008.172Zm5.654 0a2.16 2.16 0 0 1-1.217-.348 2.353 2.353 0 0 1-.826-.991c-.198-.429-.298-.935-.298-1.519 0-.58.1-1.082.298-1.508.199-.426.475-.755.83-.987a2.187 2.187 0 0 1 1.228-.348c.359 0 .642.06.85.18.211.116.371.25.481.401.113.149.2.27.263.366h.071v-2.714h.848v7.353h-.819v-.847h-.1c-.063.1-.151.227-.266.38a1.58 1.58 0 0 1-.492.406c-.213.117-.497.176-.851.176Zm.115-.761c.34 0 .627-.089.862-.266a1.67 1.67 0 0 0 .535-.743c.122-.318.183-.686.183-1.102 0-.412-.06-.772-.18-1.08a1.571 1.571 0 0 0-.531-.726c-.235-.175-.524-.262-.869-.262-.359 0-.658.092-.897.276a1.65 1.65 0 0 0-.535.743 2.944 2.944 0 0 0-.176 1.049c0 .392.059.749.179 1.07.122.318.302.572.539.76.239.187.536.28.89.28Z" fill="#868593"/><mask id="bcbaikt9tc" style="mask-type:alpha" maskUnits="userSpaceOnUse" x="434" y="25" width="12" height="7"><path fill-rule="evenodd" clip-rule="evenodd" d="m439.121 25.67-5.055 5.056.894.893 4.608-4.608 4.608 4.608.893-.893-5.055-5.055-.446-.447-.447.447Z" fill="#fff"/></mask><g mask="url(#bcbaikt9tc)"><path fill="#fff" d="M432.828 21.905h13.48v13.48h-13.48z"/></g><path d="M20.22 92.674h384.806" stroke="#2F2D39" stroke-width=".842" stroke-dasharray="2.53 3.37"/><path d="M424.859 89.492v6.127h-.928v-5.2h-.036l-1.466.958v-.886l1.529-1h.901Zm3.79 6.228c-.473-.001-.876-.126-1.211-.373-.336-.247-.592-.607-.769-1.08-.178-.473-.267-1.042-.267-1.709 0-.664.089-1.231.267-1.702.179-.47.436-.83.771-1.077.338-.247.74-.37 1.209-.37.469 0 .871.124 1.206.373.335.247.591.606.769 1.077.179.469.269 1.035.269 1.7 0 .668-.089 1.238-.266 1.71-.178.471-.434.831-.769 1.08-.335.248-.738.372-1.209.372Zm0-.798c.415 0 .739-.203.973-.607.235-.405.353-.99.353-1.757 0-.508-.054-.938-.162-1.289-.106-.353-.258-.62-.458-.802a1.001 1.001 0 0 0-.706-.275c-.413 0-.737.203-.972.61-.236.407-.354.993-.356 1.756 0 .511.053.943.158 1.296.108.35.261.617.458.799.198.18.435.269.712.269Zm5.439.798c-.473-.001-.877-.126-1.212-.373-.335-.247-.592-.607-.769-1.08-.178-.473-.266-1.042-.266-1.709 0-.664.088-1.231.266-1.702.179-.47.437-.83.772-1.077.337-.247.74-.37 1.209-.37.468 0 .87.124 1.205.373.335.247.592.606.769 1.077.18.469.269 1.035.269 1.7 0 .668-.088 1.238-.266 1.71-.177.471-.434.831-.769 1.08-.335.248-.738.372-1.208.372Zm0-.798c.414 0 .739-.203.972-.607.235-.405.353-.99.353-1.757 0-.508-.054-.938-.162-1.289-.105-.353-.258-.62-.457-.802a1.003 1.003 0 0 0-.706-.275c-.413 0-.737.203-.973.61-.235.407-.354.993-.356 1.756 0 .511.053.943.159 1.296.107.35.26.617.457.799.198.18.435.269.713.269Zm6.503-.452v-.323c0-.231.048-.443.144-.634.097-.194.239-.348.424-.464.188-.118.414-.176.68-.176.271 0 .498.057.682.173.183.116.322.27.416.464.095.193.143.406.143.637v.323c0 .232-.048.444-.143.638a1.156 1.156 0 0 1-.422.463 1.245 1.245 0 0 1-.676.174c-.27 0-.497-.058-.683-.174a1.147 1.147 0 0 1-.421-.463 1.414 1.414 0 0 1-.144-.638Zm.697-.323v.323c0 .172.041.327.123.467.081.14.224.21.428.21.201 0 .342-.07.421-.21.08-.14.12-.295.12-.467v-.323a.94.94 0 0 0-.117-.467c-.075-.14-.217-.209-.424-.209-.2 0-.342.07-.425.21a.888.888 0 0 0-.126.466Zm-3.779-3.183v-.323c0-.232.048-.444.144-.638.098-.193.239-.348.425-.463.187-.116.414-.174.679-.174.271 0 .499.058.682.174.184.115.322.27.416.463.094.194.141.406.141.638v.323c0 .231-.048.444-.144.637a1.128 1.128 0 0 1-.419.464 1.242 1.242 0 0 1-.676.173c-.271 0-.5-.058-.685-.173a1.156 1.156 0 0 1-.419-.464 1.414 1.414 0 0 1-.144-.637Zm.7-.323v.323c0 .171.04.327.12.467.082.14.225.209.428.209.199 0 .339-.07.419-.21a.904.904 0 0 0 .122-.466v-.323a.94.94 0 0 0-.116-.467c-.078-.14-.22-.21-.425-.21-.199 0-.341.07-.425.21a.904.904 0 0 0-.123.467Zm-.415 4.978 4.212-6.127h.715l-4.212 6.127h-.715Z" fill="#A1A0AB"/><path d="M392.199 128.059h12.827v5.055H20.22v-.843h12.827v-.842h12.827v-2.107H58.7v2.107h12.827v-5.477h12.827v4.213h12.827v-2.106h12.827v2.106h12.827v-4.213h51.307v-2.106h12.827v2.106h12.827v-2.106h12.827v4.213h12.827v2.106h12.827v-2.106h12.826v-2.107h12.827v-2.106h12.827v2.106h12.827v2.107h12.827v-2.107h12.827v2.107h12.827v-2.107h12.826v2.107h12.827v-2.107h12.827v2.107h12.827v-2.107h12.827v2.107Z" fill="#291839"/><path d="M405.026 128.059h-12.827v-2.107h-12.827v2.107h-12.827v-2.107h-12.827v2.107h-12.827v-2.107h-12.826v2.107h-12.827v-2.107h-12.827v2.107h-12.827v-2.107h-12.827v-2.106H263.93v2.106h-12.827v2.107h-12.826v2.106H225.45v-2.106h-12.827v-4.213h-12.827v2.106h-12.827v-2.106h-12.827v2.106h-51.307v4.213h-12.827v-2.106H97.181v2.106H84.354v-4.213H71.527v5.477H58.7v-2.107H45.874v2.107H33.047v.842H20.22" stroke="#853BCE" stroke-width="1.264"/><path d="M20.22 112.894h384.806" stroke="#2F2D39" stroke-width=".842" stroke-dasharray="2.53 3.37"/><path d="M428.752 115.923a2.3 2.3 0 0 1-1.011-.216 1.84 1.84 0 0 1-.712-.598 1.587 1.587 0 0 1-.284-.868h.898c.021.263.138.48.35.649.211.17.464.255.759.255.236 0 .444-.054.626-.162.183-.11.327-.26.431-.452.105-.191.158-.409.158-.655 0-.249-.054-.472-.161-.667a1.205 1.205 0 0 0-.446-.461 1.267 1.267 0 0 0-.646-.17c-.186 0-.372.032-.56.095a1.308 1.308 0 0 0-.455.252l-.846-.126.344-3.087h3.368v.792h-2.599l-.195 1.715h.036a1.41 1.41 0 0 1 .476-.29 1.74 1.74 0 0 1 .64-.117 1.878 1.878 0 0 1 1.687.993c.17.305.254.656.252 1.053.002.397-.088.751-.27 1.062a1.938 1.938 0 0 1-.748.736 2.192 2.192 0 0 1-1.092.267Zm5.336.018c-.473-.002-.877-.127-1.212-.374-.335-.248-.591-.608-.769-1.08-.177-.473-.266-1.043-.266-1.709 0-.664.089-1.231.266-1.702.18-.471.437-.83.772-1.077.337-.248.74-.371 1.209-.371.468 0 .87.124 1.205.374.335.247.592.606.769 1.077.18.469.269 1.035.269 1.699 0 .668-.088 1.239-.266 1.711-.177.471-.434.831-.769 1.081-.335.247-.738.371-1.208.371Zm0-.799c.414 0 .739-.203.972-.608.235-.405.353-.99.353-1.756 0-.508-.054-.938-.162-1.289-.105-.353-.258-.621-.457-.802a1 1 0 0 0-.706-.275c-.413 0-.737.203-.973.61-.235.407-.354.992-.356 1.756 0 .511.053.943.159 1.296.107.351.26.617.458.798.197.18.434.27.712.27Zm6.503-.452v-.323c0-.232.048-.443.144-.634.097-.194.239-.348.424-.464.188-.118.414-.177.68-.177.271 0 .498.058.682.174.183.116.322.27.416.464.095.193.143.405.143.637v.323c0 .231-.048.444-.143.637a1.156 1.156 0 0 1-.422.464 1.242 1.242 0 0 1-.676.173c-.27 0-.497-.057-.683-.173a1.146 1.146 0 0 1-.421-.464 1.412 1.412 0 0 1-.144-.637Zm.697-.323v.323c0 .171.041.327.123.467.082.139.224.209.428.209.201 0 .342-.07.421-.209.08-.14.12-.296.12-.467v-.323a.941.941 0 0 0-.117-.467c-.075-.14-.217-.209-.424-.209-.2 0-.341.069-.425.209a.889.889 0 0 0-.126.467Zm-3.779-3.183v-.324c0-.231.048-.443.144-.637a1.15 1.15 0 0 1 .425-.464c.187-.115.414-.173.679-.173.271 0 .499.058.682.173.184.116.322.271.416.464.094.194.141.406.141.637v.324c0 .231-.048.443-.144.637a1.133 1.133 0 0 1-.419.464 1.248 1.248 0 0 1-.676.173c-.271 0-.5-.058-.685-.173a1.162 1.162 0 0 1-.419-.464 1.415 1.415 0 0 1-.144-.637Zm.701-.324v.324c0 .171.039.327.119.466.082.14.225.21.428.21.199 0 .339-.07.419-.21a.902.902 0 0 0 .123-.466v-.324a.937.937 0 0 0-.117-.466c-.078-.14-.22-.21-.425-.21-.199 0-.341.07-.425.21a.9.9 0 0 0-.122.466Zm-.416 4.979 4.212-6.127h.715l-4.212 6.127h-.715Z" fill="#A1A0AB"/><path d="M20.22 133.114h384.806" stroke="#545260" stroke-width=".842"/><path d="M434.088 136.16c-.473-.002-.877-.126-1.212-.374-.335-.247-.591-.607-.769-1.08-.177-.472-.266-1.042-.266-1.708 0-.664.089-1.232.266-1.702.18-.471.437-.83.772-1.077.337-.248.74-.371 1.209-.371.468 0 .87.124 1.205.374.335.247.592.606.769 1.077.18.468.269 1.035.269 1.699 0 .668-.088 1.239-.266 1.711-.177.471-.434.831-.769 1.08-.335.248-.738.371-1.208.371Zm0-.799c.414 0 .739-.202.972-.607.235-.405.353-.99.353-1.756 0-.509-.054-.939-.162-1.29-.105-.353-.258-.62-.457-.801a1.001 1.001 0 0 0-.706-.276c-.413 0-.737.204-.973.611-.235.407-.354.992-.356 1.756 0 .511.053.942.159 1.295.108.351.26.618.458.799.197.18.434.269.712.269Zm6.503-.451v-.323c0-.232.048-.443.144-.635a1.14 1.14 0 0 1 .424-.463c.188-.118.414-.177.68-.177.271 0 .498.058.682.174.183.115.322.27.416.463.095.194.143.406.143.638v.323c0 .231-.048.443-.143.637a1.162 1.162 0 0 1-.422.464 1.25 1.25 0 0 1-.676.173c-.27 0-.497-.058-.683-.173a1.152 1.152 0 0 1-.421-.464 1.415 1.415 0 0 1-.144-.637Zm.697-.323v.323c0 .171.041.327.123.466.082.14.224.21.428.21.201 0 .342-.07.421-.21a.919.919 0 0 0 .12-.466v-.323a.939.939 0 0 0-.117-.467c-.075-.14-.217-.21-.424-.21-.2 0-.341.07-.425.21a.886.886 0 0 0-.126.467Zm-3.779-3.184v-.323c0-.231.048-.444.144-.637.098-.194.239-.348.425-.464.187-.115.414-.173.679-.173.271 0 .499.058.682.173.184.116.322.27.416.464.094.193.141.406.141.637v.323c0 .232-.048.444-.144.638a1.125 1.125 0 0 1-.419.463 1.24 1.24 0 0 1-.676.174c-.271 0-.5-.058-.685-.174a1.153 1.153 0 0 1-.419-.463 1.417 1.417 0 0 1-.144-.638Zm.701-.323v.323c0 .172.039.327.119.467.082.14.225.209.428.209.2 0 .339-.069.419-.209a.905.905 0 0 0 .123-.467v-.323a.944.944 0 0 0-.117-.467c-.078-.139-.22-.209-.425-.209-.199 0-.341.07-.425.209a.907.907 0 0 0-.122.467Zm-.416 4.979 4.212-6.128h.715l-4.212 6.128h-.715Z" fill="#A1A0AB"/><path d="M28.408 74.716h-1.566a1.95 1.95 0 0 0-.247-.683 1.835 1.835 0 0 0-1.06-.825 2.385 2.385 0 0 0-.733-.11c-.466 0-.88.118-1.24.353-.36.232-.642.572-.846 1.022-.204.447-.306.992-.306 1.637 0 .657.102 1.21.306 1.66.207.446.489.784.846 1.013.36.226.772.339 1.236.339.257 0 .497-.034.72-.1.226-.07.429-.172.608-.306a1.867 1.867 0 0 0 .716-1.164l1.566.008c-.058.407-.185.79-.38 1.147a3.384 3.384 0 0 1-.759.947 3.52 3.52 0 0 1-1.097.637 4.12 4.12 0 0 1-1.395.226c-.754 0-1.427-.175-2.019-.524-.592-.349-1.058-.853-1.399-1.512-.34-.659-.51-1.45-.51-2.37 0-.925.17-1.715.514-2.371.344-.66.811-1.163 1.403-1.512.592-.35 1.263-.524 2.01-.524.478 0 .922.067 1.333.201.41.134.776.331 1.097.59.321.258.585.573.792.947.21.372.346.796.41 1.274Zm1.423 5.684v-8.58h3.217c.66 0 1.212.123 1.659.369.45.246.789.584 1.018 1.014.231.427.347.913.347 1.457 0 .55-.116 1.039-.347 1.466a2.484 2.484 0 0 1-1.026 1.01c-.453.242-1.01.364-1.672.364h-2.132v-1.278h1.923c.385 0 .7-.067.946-.2.246-.135.428-.319.545-.553.12-.235.18-.504.18-.809 0-.304-.06-.572-.18-.804a1.222 1.222 0 0 0-.549-.54c-.245-.132-.562-.197-.95-.197h-1.425v7.28h-1.554Zm12.999-8.579h1.553v5.605c0 .614-.145 1.154-.435 1.62a2.948 2.948 0 0 1-1.215 1.094c-.522.26-1.132.39-1.83.39-.701 0-1.313-.13-1.835-.39a2.944 2.944 0 0 1-1.215-1.093c-.287-.467-.43-1.007-.43-1.621V71.82h1.553v5.475c0 .357.078.675.235.955a1.7 1.7 0 0 0 .67.657c.287.157.628.235 1.022.235.393 0 .734-.078 1.022-.235.29-.159.514-.378.67-.657a1.92 1.92 0 0 0 .234-.955V71.82Zm-21.764 92.827v-8.578h3.217c.659 0 1.211.115 1.658.344.45.229.79.55 1.018.963.232.411.348.889.348 1.437 0 .55-.117 1.027-.352 1.432a2.319 2.319 0 0 1-1.026.934c-.453.218-1.008.327-1.667.327H21.97v-1.29h2.081c.386 0 .701-.053.947-.159.246-.109.427-.267.544-.474.12-.209.18-.466.18-.77 0-.305-.06-.564-.18-.779a1.148 1.148 0 0 0-.548-.495c-.246-.114-.563-.171-.951-.171H22.62v7.279h-1.554Zm4.431-3.887 2.124 3.887h-1.734l-2.086-3.887h1.696Zm4.342 3.887H28.18l3.02-8.578h1.918l3.024 8.578h-1.658l-2.291-6.819h-.067l-2.287 6.819Zm.054-3.363h4.524v1.248h-4.524v-1.248Zm7.379-5.215h1.902l2.547 6.216h.1l2.547-6.216h1.901v8.578h-1.49v-5.893h-.08l-2.371 5.868h-1.114l-2.371-5.88h-.08v5.905h-1.49v-8.578Z" fill="#fff"/><path d="M20.22 176.923h384.806" stroke="#2F2D39" stroke-width=".842" stroke-dasharray="2.53 3.37"/><path d="M413.319 179.868v-.67l2.074-2.148c.221-.233.403-.438.547-.613.146-.178.254-.346.326-.506.072-.16.108-.329.108-.509a.942.942 0 0 0-.144-.526.936.936 0 0 0-.392-.344 1.241 1.241 0 0 0-.559-.123c-.22 0-.411.045-.575.135a.92.92 0 0 0-.377.38 1.204 1.204 0 0 0-.131.574h-.883c0-.373.086-.699.258-.978.171-.279.406-.496.706-.649a2.172 2.172 0 0 1 1.02-.234c.385 0 .724.077 1.017.231.295.151.526.359.691.622.166.261.248.556.248.885 0 .228-.042.45-.128.668a2.977 2.977 0 0 1-.44.727c-.209.265-.501.587-.874.966l-1.217 1.274v.045h2.758v.793h-4.033Zm7.19.084c-.375 0-.713-.072-1.012-.215a1.841 1.841 0 0 1-.712-.599 1.581 1.581 0 0 1-.284-.867h.898a.894.894 0 0 0 .35.649c.211.169.464.254.76.254.235 0 .443-.054.625-.161.183-.11.327-.261.431-.452.105-.192.158-.41.158-.655 0-.25-.054-.472-.161-.668a1.195 1.195 0 0 0-.446-.46 1.258 1.258 0 0 0-.646-.171c-.186 0-.372.032-.56.096a1.307 1.307 0 0 0-.455.251l-.846-.125.344-3.088h3.369v.793h-2.6l-.195 1.714h.036c.12-.116.278-.212.476-.29a1.74 1.74 0 0 1 .64-.117 1.87 1.87 0 0 1 1.687.994c.17.305.254.656.252 1.053.002.397-.088.751-.27 1.062a1.95 1.95 0 0 1-.747.736 2.208 2.208 0 0 1-1.092.266Zm5.341 0a2.462 2.462 0 0 1-.808-.15 1.886 1.886 0 0 1-.718-.478c-.216-.224-.388-.524-.518-.901-.127-.377-.191-.848-.191-1.412 0-.535.053-1.009.158-1.424.108-.415.263-.765.464-1.05.201-.287.445-.506.73-.655a2.03 2.03 0 0 1 .96-.225c.365 0 .69.072.973.216.283.143.512.342.688.595.177.253.29.542.338.865h-.913a1.172 1.172 0 0 0-.368-.626c-.183-.161-.422-.242-.718-.242-.448 0-.798.195-1.05.586-.249.391-.375.935-.377 1.631h.045a1.677 1.677 0 0 1 .91-.727c.193-.068.397-.102.61-.102.355 0 .676.087.963.26.29.172.52.409.691.713.172.303.258.65.258 1.041 0 .391-.089.745-.266 1.062a1.961 1.961 0 0 1-.742.754c-.32.183-.693.273-1.119.269Zm-.003-.778c.235 0 .445-.058.631-.173.185-.116.332-.272.44-.467.107-.196.161-.414.161-.655 0-.236-.053-.45-.158-.644a1.2 1.2 0 0 0-.431-.46 1.146 1.146 0 0 0-.622-.171 1.193 1.193 0 0 0-.889.383c-.114.12-.203.257-.269.413a1.317 1.317 0 0 0 .063 1.125c.107.195.254.353.439.473.188.117.399.176.635.176Zm5.533-5.433h1.122l1.951 4.763h.071l1.951-4.763h1.122v6.127h-.88v-4.434h-.057l-1.807 4.425h-.73l-1.807-4.428h-.056v4.437h-.88v-6.127Zm7.561 6.127v-6.127h2.244c.435 0 .795.072 1.08.215.285.142.499.334.64.578.142.241.213.513.213.817 0 .255-.047.47-.141.646a1.163 1.163 0 0 1-.377.419 1.681 1.681 0 0 1-.515.227v.06c.204.01.402.076.596.197.195.12.357.291.484.512.128.221.192.491.192.808 0 .313-.074.594-.222.843-.145.248-.37.444-.676.59-.305.143-.695.215-1.169.215h-2.349Zm.924-.793h1.335c.443 0 .76-.085.951-.257a.825.825 0 0 0 .287-.643c0-.194-.048-.371-.146-.533a1.059 1.059 0 0 0-.419-.386 1.352 1.352 0 0 0-.64-.143h-1.368v1.962Zm0-2.683h1.239c.207 0 .394-.04.56-.12.167-.08.3-.191.397-.335.1-.146.15-.317.15-.515a.853.853 0 0 0-.266-.637c-.178-.171-.45-.257-.817-.257h-1.263v1.864Z" fill="#A1A0AB"/><path d="M20.22 197.143h384.806" stroke="#2F2D39" stroke-width=".842" stroke-dasharray="2.53 3.37"/><path d="M416.919 193.961v6.127h-.927v-5.2h-.036l-1.466.958v-.886l1.529-.999h.9Zm1.658 6.127v-.67l2.073-2.148c.221-.234.404-.438.547-.614.146-.177.255-.346.327-.505.071-.16.107-.329.107-.509a.95.95 0 0 0-.143-.526.935.935 0 0 0-.392-.344 1.245 1.245 0 0 0-.56-.123c-.219 0-.411.045-.574.134a.926.926 0 0 0-.377.38 1.196 1.196 0 0 0-.132.575h-.882c0-.373.085-.699.257-.978.171-.28.407-.496.706-.65a2.184 2.184 0 0 1 1.02-.233c.385 0 .724.077 1.017.23.296.152.526.359.692.623.165.261.248.556.248.885 0 .228-.043.45-.129.667a2.91 2.91 0 0 1-.44.727c-.209.266-.5.588-.873.967l-1.218 1.274v.045h2.759v.793h-4.033Zm7.237.084c-.429 0-.808-.074-1.137-.222a1.856 1.856 0 0 1-.769-.61 1.472 1.472 0 0 1-.275-.886 1.572 1.572 0 0 1 .158-.715 1.58 1.58 0 0 1 .446-.547 1.38 1.38 0 0 1 .628-.281v-.036a1.241 1.241 0 0 1-.733-.491 1.437 1.437 0 0 1-.272-.874 1.434 1.434 0 0 1 .248-.837c.17-.248.402-.442.698-.584a2.31 2.31 0 0 1 1.008-.212c.373 0 .706.072.999.215.295.142.528.336.697.584.17.245.255.523.257.834a1.45 1.45 0 0 1-.281.874 1.248 1.248 0 0 1-.724.491v.036c.23.04.436.133.619.281.186.145.334.328.443.547.112.218.169.456.171.715a1.504 1.504 0 0 1-.281.886 1.86 1.86 0 0 1-.772.61 2.71 2.71 0 0 1-1.128.222Zm0-.757c.253 0 .472-.042.658-.126.185-.086.329-.204.431-.356a.966.966 0 0 0 .155-.538 1.008 1.008 0 0 0-.167-.566 1.124 1.124 0 0 0-.44-.386 1.389 1.389 0 0 0-.637-.14c-.242 0-.456.046-.643.14a1.113 1.113 0 0 0-.443.386.987.987 0 0 0-.159.566.945.945 0 0 0 .147.538c.102.152.246.27.434.356.187.084.408.126.664.126Zm0-2.851c.203 0 .384-.041.541-.123a.927.927 0 0 0 .371-.341.957.957 0 0 0 .141-.512.943.943 0 0 0-.138-.502.86.86 0 0 0-.368-.332c-.157-.08-.34-.12-.547-.12-.212 0-.397.04-.557.12a.871.871 0 0 0-.496.834.944.944 0 0 0 .131.512.94.94 0 0 0 .371.341c.16.082.343.123.551.123Zm5.566-2.603h1.122l1.951 4.763h.071l1.951-4.763h1.122v6.127h-.88v-4.434h-.056l-1.808 4.425h-.73l-1.807-4.428h-.056v4.437h-.88v-6.127Zm7.561 6.127v-6.127h2.244c.435 0 .795.072 1.08.215.285.142.499.334.64.578.142.241.213.513.213.816 0 .256-.047.471-.141.647a1.152 1.152 0 0 1-.377.418 1.66 1.66 0 0 1-.515.228v.06c.204.01.402.075.596.197.195.12.357.29.484.512.128.221.192.49.192.807 0 .314-.074.595-.221.844a1.514 1.514 0 0 1-.677.59c-.305.143-.695.215-1.169.215h-2.349Zm.925-.793h1.334c.443 0 .76-.086.951-.257a.826.826 0 0 0 .287-.643c0-.194-.048-.371-.146-.533a1.045 1.045 0 0 0-.419-.386 1.34 1.34 0 0 0-.64-.144h-1.367v1.963Zm0-2.684h1.238c.208 0 .394-.039.56-.119.167-.08.3-.192.397-.335.1-.146.15-.317.15-.515a.851.851 0 0 0-.266-.637c-.178-.172-.45-.257-.817-.257h-1.262v1.863Z" fill="#A1A0AB"/><path d="M33.047 200.513H20.22v16.85h384.806v-12.638h-12.827v-4.212h-12.827v-2.106h-12.827v2.106h-12.827v-2.106h-12.827v4.212h-12.826v-2.106h-12.827v2.106h-12.827v-4.212h-51.308V196.3h-12.826v2.107H225.45V196.3h-12.827v4.213h-12.827v2.106h-12.827v-2.106h-12.827v-2.106h-12.827V196.3h-12.827v2.107h-12.826v2.106h-12.827v-2.106h-12.827v2.106H97.181v-2.106H84.354v2.106H71.527v-2.106H58.7v2.106H45.874v-2.106H33.047v2.106Z" fill="#291839"/><path d="M20.22 200.513h12.827v-2.107h12.827v2.107H58.7v-2.107h12.827v2.107h12.827v-2.107h12.827v2.107h12.827v-2.107h12.827v2.107h12.827v-2.107h12.826V196.3h12.827v2.106h12.827v2.107h12.827v2.106h12.827v-2.106h12.827V196.3h12.827v2.106h12.827V196.3h12.826v2.106h51.308v4.213h12.827v-2.106h12.827v2.106h12.826v-4.213h12.827v2.107h12.827v-2.107h12.827v2.107h12.827v4.212h12.827" stroke="#853BCE" stroke-width="1.264"/><path d="M20.22 217.363h384.806" stroke="#545260" stroke-width=".842"/><path d="M433.322 220.409c-.472-.002-.876-.126-1.211-.374-.335-.247-.592-.607-.769-1.08-.178-.472-.266-1.042-.266-1.708 0-.664.088-1.232.266-1.702.179-.471.437-.83.772-1.077.337-.248.74-.371 1.208-.371.469 0 .871.124 1.206.374.335.247.592.606.769 1.077.18.468.269 1.035.269 1.699 0 .668-.088 1.239-.266 1.711-.178.471-.434.831-.769 1.08-.335.248-.738.371-1.209.371Zm0-.798c.415 0 .739-.203.973-.608.235-.405.353-.99.353-1.756 0-.509-.054-.938-.162-1.289-.105-.353-.258-.621-.458-.802a.997.997 0 0 0-.706-.275c-.412 0-.737.203-.972.61s-.354.992-.356 1.756c0 .511.053.942.159 1.295.107.352.26.618.457.799.198.18.435.27.712.27Zm5.619.697v-6.128h2.244c.435 0 .795.072 1.08.216.285.141.499.334.64.577.142.242.213.514.213.817 0 .255-.047.471-.141.646a1.155 1.155 0 0 1-.377.419c-.156.104-.327.18-.515.227v.06c.204.01.402.076.596.198.195.119.357.29.484.511.128.222.192.491.192.808 0 .313-.074.595-.221.844a1.506 1.506 0 0 1-.677.589c-.305.144-.695.216-1.169.216h-2.349Zm.925-.793h1.334c.443 0 .76-.086.951-.257a.827.827 0 0 0 .287-.644c0-.193-.048-.371-.146-.532a1.045 1.045 0 0 0-.419-.386 1.34 1.34 0 0 0-.64-.144h-1.367v1.963Zm0-2.684h1.238c.208 0 .394-.04.56-.119.167-.08.3-.192.397-.336.1-.145.15-.317.15-.514a.851.851 0 0 0-.266-.637c-.178-.172-.45-.258-.817-.258h-1.262v1.864Z" fill="#A1A0AB"/><path d="M29.004 256.48h-1.04a2.153 2.153 0 0 0-.874-1.357 2.35 2.35 0 0 0-.717-.352 2.867 2.867 0 0 0-.82-.117c-.52 0-.99.131-1.412.394-.419.262-.753.649-1.001 1.16-.246.511-.369 1.138-.369 1.88 0 .743.123 1.37.369 1.881.248.511.582.898 1 1.16.422.263.893.394 1.412.394.285 0 .559-.039.821-.117a2.37 2.37 0 0 0 .716-.348 2.205 2.205 0 0 0 .876-1.361h1.039c-.079.438-.22.831-.428 1.177a3.225 3.225 0 0 1-.77.884c-.307.24-.652.423-1.035.548-.38.126-.786.189-1.219.189-.731 0-1.382-.179-1.951-.536-.57-.358-1.018-.866-1.345-1.525-.327-.659-.49-1.441-.49-2.346 0-.904.163-1.686.49-2.345.327-.659.775-1.167 1.345-1.525.57-.357 1.22-.536 1.951-.536.433 0 .84.063 1.22.189.382.125.727.31 1.034.552.307.241.564.534.77.88.207.344.35.736.428 1.177Zm1.678 5.897v-8.578h2.899c.673 0 1.223.122 1.65.365.43.24.748.565.955.976.207.41.31.868.31 1.374 0 .505-.103.964-.31 1.378-.204.413-.52.742-.947.988-.427.243-.974.364-1.642.364H31.52v-.921h2.044c.46 0 .83-.08 1.11-.239.28-.159.482-.374.607-.645.129-.273.193-.582.193-.925 0-.344-.064-.651-.193-.922a1.377 1.377 0 0 0-.611-.637c-.282-.156-.657-.234-1.123-.234h-1.826v7.656h-1.039Zm13.117-8.578h1.038v5.68a3 3 0 0 1-.414 1.571c-.274.458-.66.819-1.16 1.085-.5.262-1.087.393-1.76.393s-1.26-.131-1.759-.393a2.938 2.938 0 0 1-1.164-1.085 3.019 3.019 0 0 1-.41-1.571v-5.68h1.038v5.596c0 .419.092.792.276 1.119.185.324.447.579.788.766.343.184.754.277 1.231.277.478 0 .888-.093 1.232-.277.343-.187.606-.442.787-.766.184-.327.277-.7.277-1.119v-5.596Zm27.306 6.819v-.854l3.77-5.965h.62v1.324h-.42l-2.848 4.507v.067h5.076v.921h-6.198Zm4.037 1.759v-8.578h.989v8.578h-.989Zm6.665-8.695c.352.003.704.07 1.056.201.352.131.673.349.963.653.29.302.524.714.7 1.236.175.522.263 1.177.263 1.965 0 .762-.072 1.439-.217 2.031-.143.589-.35 1.086-.62 1.491a2.753 2.753 0 0 1-.98.922 2.663 2.663 0 0 1-1.299.314 2.82 2.82 0 0 1-1.286-.285 2.524 2.524 0 0 1-.921-.8 2.791 2.791 0 0 1-.457-1.194h1.022c.092.394.275.719.549.976.276.254.64.381 1.093.381.662 0 1.184-.289 1.567-.867.385-.578.578-1.395.578-2.45h-.067a2.633 2.633 0 0 1-.557.607 2.435 2.435 0 0 1-.717.394 2.514 2.514 0 0 1-.837.138c-.492 0-.943-.121-1.353-.364a2.762 2.762 0 0 1-.98-1.01 2.943 2.943 0 0 1-.365-1.474c0-.525.118-1.005.352-1.441.237-.438.57-.787.997-1.047.43-.26.935-.385 1.516-.377Zm0 .922c-.352 0-.669.087-.95.263-.28.174-.502.408-.667.704a1.986 1.986 0 0 0-.242.976c0 .357.078.683.234.976.16.29.376.522.65.695.276.171.59.256.942.256a1.787 1.787 0 0 0 1.34-.587c.173-.184.309-.392.406-.624a1.917 1.917 0 0 0-.096-1.675 1.926 1.926 0 0 0-.662-.712 1.71 1.71 0 0 0-.955-.272Zm5.509 7.84a.726.726 0 0 1-.532-.222.725.725 0 0 1-.222-.532c0-.206.074-.383.222-.531a.726.726 0 0 1 .532-.222c.207 0 .384.074.532.222a.725.725 0 0 1 .222.531.781.781 0 0 1-.377.654.718.718 0 0 1-.377.1Zm3.232-.067 3.836-7.589v-.067h-4.423v-.922h5.496v.972l-3.82 7.606h-1.09Zm9.881.118c-.553 0-1.045-.095-1.478-.285a2.534 2.534 0 0 1-1.026-.792 2.126 2.126 0 0 1-.41-1.185h1.055c.022.276.117.515.285.716.167.198.386.352.657.461.27.109.571.163.901.163.368 0 .695-.064.98-.192.285-.129.508-.308.67-.537.162-.229.243-.494.243-.795 0-.316-.078-.594-.235-.834a1.55 1.55 0 0 0-.687-.57c-.301-.136-.67-.205-1.105-.205h-.687v-.921h.687c.34 0 .639-.062.896-.185a1.392 1.392 0 0 0 .829-1.306c0-.291-.064-.544-.192-.759a1.318 1.318 0 0 0-.545-.502 1.763 1.763 0 0 0-.821-.18c-.296 0-.575.054-.838.163-.26.106-.472.261-.636.465a1.21 1.21 0 0 0-.268.729h-1.005c.016-.45.152-.843.406-1.181.254-.341.586-.606.997-.796a3.22 3.22 0 0 1 1.361-.285c.53 0 .986.108 1.365.323.38.212.672.492.876.841.204.349.305.726.305 1.131 0 .483-.127.895-.381 1.236a1.927 1.927 0 0 1-1.026.708v.067c.542.089.965.32 1.269.691.305.369.457.825.457 1.37 0 .466-.127.885-.381 1.256a2.588 2.588 0 0 1-1.031.871c-.435.213-.931.319-1.487.319Zm8.006-.118v-6.433h.955v1.005h.083a1.62 1.62 0 0 1 .65-.8c.298-.193.657-.289 1.076-.289.425 0 .778.096 1.06.289.285.19.507.457.666.8h.067c.165-.332.412-.596.741-.792.33-.198.725-.297 1.186-.297.575 0 1.045.18 1.411.54.366.358.549.915.549 1.672v4.305h-.989v-4.305c0-.475-.13-.814-.389-1.018a1.443 1.443 0 0 0-.918-.306c-.452 0-.802.137-1.051.411-.248.27-.373.614-.373 1.03v4.188h-1.005v-4.406c0-.366-.119-.66-.356-.884-.237-.226-.543-.339-.917-.339-.257 0-.497.068-.721.205-.22.137-.399.327-.536.57-.134.24-.201.518-.201.833v4.021h-.988Zm10.251 0v-6.433h.989v6.433h-.989Zm.503-7.505a.705.705 0 0 1-.499-.197.633.633 0 0 1-.205-.474c0-.184.068-.342.205-.473a.705.705 0 0 1 .499-.197.69.69 0 0 1 .494.197c.14.131.209.289.209.473a.626.626 0 0 1-.209.474.69.69 0 0 1-.494.197Zm3.285 3.635v3.87h-.989v-6.433h.955v1.005h.084c.151-.327.38-.589.687-.787.307-.201.703-.302 1.189-.302.436 0 .817.089 1.144.268.326.176.581.444.762.804.182.358.272.81.272 1.357v4.088h-.988v-4.021c0-.505-.131-.899-.394-1.181-.262-.285-.623-.427-1.081-.427-.315 0-.597.068-.846.205a1.48 1.48 0 0 0-.582.599c-.142.263-.213.581-.213.955Zm9.965 1.24v-3.803h.989v6.433h-.989v-1.089h-.067a2.107 2.107 0 0 1-.704.834c-.318.226-.72.339-1.206.339-.402 0-.759-.088-1.072-.264a1.833 1.833 0 0 1-.737-.804c-.179-.36-.268-.814-.268-1.361v-4.088h.988v4.021c0 .469.131.843.394 1.122.265.28.603.419 1.013.419.246 0 .496-.063.75-.188a1.64 1.64 0 0 0 .645-.578c.176-.26.264-.591.264-.993Zm5.597-3.803v.838h-3.334v-.838h3.334Zm-2.362-1.542h.988v6.132c0 .28.041.489.122.629.083.137.19.229.318.276.131.045.269.067.415.067a1.648 1.648 0 0 0 .435-.05l.201.888a2.01 2.01 0 0 1-.28.075c-.12.028-.273.042-.457.042-.279 0-.553-.06-.821-.18a1.632 1.632 0 0 1-.662-.549c-.173-.245-.259-.555-.259-.929v-6.401Zm6.477 8.109c-.62 0-1.154-.136-1.604-.41a2.754 2.754 0 0 1-1.035-1.156c-.24-.497-.36-1.075-.36-1.734s.12-1.24.36-1.743a2.844 2.844 0 0 1 1.014-1.181c.436-.285.944-.427 1.525-.427.335 0 .666.056.992.168.327.111.624.293.893.544.268.249.481.578.64.989.16.41.239.915.239 1.516v.419h-4.959v-.855h3.954c0-.363-.073-.687-.218-.971a1.641 1.641 0 0 0-.611-.675 1.713 1.713 0 0 0-.93-.247c-.394 0-.735.098-1.022.293a1.934 1.934 0 0 0-.658.754c-.153.31-.23.642-.23.997v.57c0 .486.083.897.251 1.235.17.335.406.591.708.767.301.173.652.259 1.051.259.26 0 .494-.036.704-.108.212-.076.395-.188.549-.336a1.52 1.52 0 0 0 .356-.561l.955.268a2.13 2.13 0 0 1-.507.855 2.465 2.465 0 0 1-.88.569 3.261 3.261 0 0 1-1.177.201Zm5.156-8.712v8.578h-.988v-8.578h.988Zm2.447 10.991a2.16 2.16 0 0 1-.448-.042 1.184 1.184 0 0 1-.272-.075l.251-.871c.24.061.453.083.637.067a.765.765 0 0 0 .49-.248c.145-.145.278-.381.398-.707l.184-.503-2.379-6.467h1.072l1.776 5.127h.067l1.776-5.127h1.073l-2.731 7.372a2.786 2.786 0 0 1-.457.825c-.181.22-.392.384-.632.49a1.957 1.957 0 0 1-.805.159Zm14.507-8.846-2.379 6.433h-1.005l-2.379-6.433h1.072l1.776 5.127h.067l1.776-5.127h1.072Zm8.342.536h-1.039a2.156 2.156 0 0 0-.875-1.357 2.35 2.35 0 0 0-.717-.352 2.864 2.864 0 0 0-.821-.117 2.62 2.62 0 0 0-1.411.393c-.419.263-.753.65-1.001 1.161-.246.511-.369 1.138-.369 1.88 0 .743.123 1.37.369 1.881.248.511.582.898 1.001 1.16.422.263.892.394 1.411.394.285 0 .559-.039.821-.117a2.41 2.41 0 0 0 .717-.348 2.2 2.2 0 0 0 .875-1.361h1.039c-.078.438-.221.83-.427 1.177a3.232 3.232 0 0 1-.771.884c-.307.24-.652.423-1.035.548a3.843 3.843 0 0 1-1.219.189c-.731 0-1.382-.179-1.951-.536-.57-.358-1.018-.866-1.345-1.525-.327-.659-.49-1.441-.49-2.346 0-.904.163-1.686.49-2.345.327-.659.775-1.167 1.345-1.525.569-.357 1.22-.536 1.951-.536.433 0 .84.063 1.219.189.383.125.728.309 1.035.552.307.241.564.534.771.88.206.343.349.736.427 1.177Zm1.678 5.897v-8.578h2.899c.673 0 1.223.122 1.65.365.43.24.748.565.955.976.207.41.31.868.31 1.373 0 .506-.103.965-.31 1.378a2.3 2.3 0 0 1-.947.989c-.427.243-.974.364-1.641.364h-2.078v-.921h2.044c.461 0 .831-.08 1.11-.239a1.42 1.42 0 0 0 .607-.645c.129-.274.193-.582.193-.926 0-.343-.064-.65-.193-.921a1.373 1.373 0 0 0-.611-.637c-.282-.156-.656-.234-1.123-.234h-1.826v7.656h-1.039Zm13.117-8.578h1.038v5.68a3 3 0 0 1-.414 1.571 2.906 2.906 0 0 1-1.16 1.084c-.5.263-1.087.394-1.76.394s-1.259-.131-1.759-.394a2.924 2.924 0 0 1-1.164-1.084 3.016 3.016 0 0 1-.411-1.571v-5.68h1.039v5.596c0 .419.092.792.277 1.119.184.323.446.579.787.766.343.184.754.276 1.231.276.478 0 .888-.092 1.232-.276a1.95 1.95 0 0 0 .787-.766c.185-.327.277-.7.277-1.119v-5.596Zm30.152 9.651v-10.723h.687v10.723h-.687Zm2.312-7.506a1.317 1.317 0 0 0-.612-.989c-.357-.234-.796-.351-1.315-.351-.38 0-.712.061-.997.184a1.6 1.6 0 0 0-.662.507 1.216 1.216 0 0 0-.234.733c0 .229.054.425.163.59.112.162.254.298.427.406.174.107.355.195.545.264.19.067.364.122.523.164l.872.234c.223.059.472.14.745.243.277.104.541.245.792.423.254.176.463.402.628.679.165.276.247.615.247 1.018 0 .463-.121.882-.364 1.256-.24.374-.592.672-1.056.892-.46.221-1.02.331-1.679.331-.615 0-1.147-.099-1.596-.297a2.54 2.54 0 0 1-1.056-.83 2.367 2.367 0 0 1-.431-1.235h1.072c.028.324.137.592.327.804.193.209.436.366.729.469.296.101.614.151.955.151.396 0 .752-.064 1.068-.193.315-.131.565-.312.75-.544.184-.235.276-.508.276-.821 0-.285-.08-.517-.239-.695a1.748 1.748 0 0 0-.628-.436 6.586 6.586 0 0 0-.842-.293l-1.055-.302c-.671-.193-1.201-.468-1.592-.825-.391-.357-.586-.825-.586-1.403 0-.48.129-.899.389-1.257.263-.36.614-.639 1.056-.837a3.563 3.563 0 0 1 1.487-.302c.552 0 1.044.099 1.474.297.43.196.771.464 1.022.805.254.34.388.727.402 1.16h-1.005Zm5.611 6.551c-.631 0-1.168-.172-1.612-.516-.444-.346-.784-.847-1.018-1.503-.235-.659-.352-1.455-.352-2.388 0-.927.117-1.718.352-2.375.237-.659.578-1.161 1.022-1.507.447-.349.983-.524 1.608-.524.626 0 1.161.175 1.605.524.446.346.787.848 1.022 1.507.237.657.356 1.448.356 2.375 0 .933-.118 1.729-.352 2.388-.235.656-.574 1.157-1.018 1.503-.444.344-.982.516-1.613.516Zm0-.922c.626 0 1.112-.301 1.458-.905.346-.603.519-1.463.519-2.58 0-.742-.079-1.375-.238-1.897-.157-.522-.383-.92-.679-1.194a1.5 1.5 0 0 0-1.06-.41c-.62 0-1.104.306-1.453.917-.349.609-.524 1.47-.524 2.584 0 .743.079 1.374.235 1.894.156.519.381.914.674 1.185.296.271.652.406 1.068.406Zm5.442.871a.727.727 0 0 1-.532-.222.725.725 0 0 1-.222-.532c0-.206.074-.383.222-.531a.727.727 0 0 1 .532-.222c.207 0 .384.074.532.222a.725.725 0 0 1 .222.531.707.707 0 0 1-.105.377.776.776 0 0 1-.272.277.716.716 0 0 1-.377.1Zm5.443.051c-.631 0-1.168-.172-1.612-.516-.444-.346-.784-.847-1.018-1.503-.235-.659-.352-1.455-.352-2.388 0-.927.117-1.718.352-2.375.237-.659.578-1.161 1.022-1.507.447-.349.983-.524 1.608-.524.626 0 1.16.175 1.604.524.447.346.788.848 1.022 1.507.238.657.356 1.448.356 2.375 0 .933-.117 1.729-.351 2.388-.235.656-.574 1.157-1.018 1.503-.444.344-.982.516-1.613.516Zm0-.922c.626 0 1.112-.301 1.458-.905.346-.603.519-1.463.519-2.58 0-.742-.079-1.375-.239-1.897-.156-.522-.382-.92-.678-1.194a1.501 1.501 0 0 0-1.06-.41c-.62 0-1.104.306-1.453.917-.349.609-.524 1.47-.524 2.584 0 .743.078 1.374.235 1.894.156.519.381.914.674 1.185.296.271.652.406 1.068.406Zm7.637.922c-.631 0-1.169-.172-1.613-.516-.444-.346-.783-.847-1.017-1.503-.235-.659-.352-1.455-.352-2.388 0-.927.117-1.718.352-2.375.237-.659.578-1.161 1.022-1.507.446-.349.982-.524 1.608-.524.625 0 1.16.175 1.604.524.447.346.788.848 1.022 1.507.237.657.356 1.448.356 2.375 0 .933-.117 1.729-.352 2.388-.234.656-.573 1.157-1.017 1.503-.444.344-.982.516-1.613.516Zm0-.922c.625 0 1.111-.301 1.458-.905.346-.603.519-1.463.519-2.58 0-.742-.08-1.375-.239-1.897-.156-.522-.382-.92-.678-1.194a1.503 1.503 0 0 0-1.06-.41c-.62 0-1.104.306-1.453.917-.35.609-.524 1.47-.524 2.584 0 .743.078 1.374.235 1.894.156.519.381.914.674 1.185.296.271.652.406 1.068.406Zm7.637.922c-.631 0-1.169-.172-1.613-.516-.444-.346-.783-.847-1.018-1.503-.234-.659-.352-1.455-.352-2.388 0-.927.118-1.718.352-2.375.238-.659.578-1.161 1.022-1.507.447-.349.983-.524 1.609-.524.625 0 1.16.175 1.604.524.447.346.787.848 1.022 1.507.237.657.356 1.448.356 2.375 0 .933-.117 1.729-.352 2.388-.235.656-.574 1.157-1.018 1.503-.444.344-.981.516-1.612.516Zm0-.922c.625 0 1.111-.301 1.457-.905.347-.603.52-1.463.52-2.58 0-.742-.08-1.375-.239-1.897-.156-.522-.383-.92-.679-1.194a1.499 1.499 0 0 0-1.059-.41c-.62 0-1.105.306-1.454.917-.349.609-.523 1.47-.523 2.584 0 .743.078 1.374.234 1.894.157.519.381.914.675 1.185.296.271.652.406 1.068.406Zm4.503-.955v-.854l3.77-5.965h.62v1.324h-.419l-2.848 4.507v.067h5.076v.921h-6.199Zm4.038 1.759v-8.578h.989v8.578h-.989Zm6.782.118a3.235 3.235 0 0 1-1.055-.201 2.534 2.534 0 0 1-.964-.65c-.29-.307-.523-.721-.699-1.244-.176-.525-.264-1.184-.264-1.977 0-.759.071-1.432.214-2.018.142-.59.349-1.085.62-1.487.271-.405.597-.712.98-.922a2.685 2.685 0 0 1 1.302-.314c.481 0 .908.096 1.282.289.377.19.684.455.922.796.237.341.39.733.46 1.177h-1.022a1.89 1.89 0 0 0-.553-.959c-.273-.254-.636-.381-1.089-.381-.664 0-1.188.289-1.57.867-.38.578-.571 1.389-.574 2.433h.067a2.508 2.508 0 0 1 2.111-1.139c.491 0 .941.123 1.349.368.407.243.734.58.98 1.01.245.427.368.917.368 1.47 0 .531-.118 1.016-.356 1.458a2.714 2.714 0 0 1-1.001 1.047c-.427.257-.93.382-1.508.377Zm0-.922c.352 0 .668-.088.947-.264.282-.176.504-.412.666-.708.165-.296.247-.625.247-.988 0-.355-.08-.677-.239-.968a1.812 1.812 0 0 0-.649-.699 1.718 1.718 0 0 0-.938-.26 1.74 1.74 0 0 0-.741.159 1.92 1.92 0 0 0-.604.428c-.17.181-.304.389-.402.624a1.989 1.989 0 0 0 .092 1.688c.162.296.383.534.662.716.282.181.602.272.959.272Zm7.62.922c-.553 0-1.045-.095-1.478-.285a2.532 2.532 0 0 1-1.026-.792 2.12 2.12 0 0 1-.411-1.185h1.056c.022.276.117.515.284.716.168.198.387.352.658.461.271.109.571.163.901.163.368 0 .695-.064.98-.192.285-.129.508-.308.67-.537.162-.229.243-.494.243-.795 0-.316-.078-.594-.235-.834a1.55 1.55 0 0 0-.687-.57c-.301-.136-.67-.205-1.105-.205h-.687v-.921h.687c.34 0 .639-.062.896-.185a1.392 1.392 0 0 0 .829-1.306c0-.291-.064-.544-.192-.759a1.318 1.318 0 0 0-.545-.502 1.763 1.763 0 0 0-.821-.18c-.296 0-.575.054-.838.163a1.555 1.555 0 0 0-.636.465 1.21 1.21 0 0 0-.268.729h-1.006c.017-.45.153-.843.407-1.181.254-.341.586-.606.997-.796.413-.19.867-.285 1.361-.285.53 0 .986.108 1.365.323.38.212.672.492.876.841.204.349.305.726.305 1.131 0 .483-.127.895-.381 1.236a1.927 1.927 0 0 1-1.026.708v.067c.542.089.965.32 1.269.691.305.369.457.825.457 1.37 0 .466-.127.885-.381 1.256a2.588 2.588 0 0 1-1.031.871c-.435.213-.931.319-1.487.319Zm11.038-9.098-2.764 10.27h-.905l2.764-10.27h.905Zm9.75 2.547-2.379 6.433h-1.005l-2.379-6.433h1.072l1.776 5.127h.067l1.776-5.127h1.072Zm8.341.536h-1.038a2.157 2.157 0 0 0-.876-1.357 2.355 2.355 0 0 0-.716-.352 2.864 2.864 0 0 0-.821-.117c-.519 0-.99.131-1.411.393-.419.263-.753.65-1.002 1.161-.245.511-.368 1.138-.368 1.88 0 .743.123 1.37.368 1.881.249.511.583.898 1.002 1.16a2.61 2.61 0 0 0 1.411.394c.285 0 .559-.039.821-.117.262-.079.501-.194.716-.348a2.205 2.205 0 0 0 .876-1.361h1.038c-.078.438-.22.83-.427 1.177a3.2 3.2 0 0 1-1.805 1.432c-.38.126-.786.189-1.219.189-.732 0-1.382-.179-1.952-.536-.569-.358-1.018-.866-1.344-1.525-.327-.659-.49-1.441-.49-2.346 0-.904.163-1.686.49-2.345.326-.659.775-1.167 1.344-1.525.57-.357 1.22-.536 1.952-.536.433 0 .839.063 1.219.189a3.31 3.31 0 0 1 1.034.552c.308.241.565.534.771.88.207.343.349.736.427 1.177Zm1.679 5.897v-8.578h2.898c.673 0 1.223.122 1.651.365.43.24.748.565.955.976.206.41.31.868.31 1.373 0 .506-.104.965-.31 1.378-.204.414-.52.743-.947.989-.427.243-.974.364-1.642.364h-2.077v-.921h2.044c.46 0 .83-.08 1.11-.239.279-.159.481-.374.607-.645a2.16 2.16 0 0 0 .193-.926c0-.343-.065-.65-.193-.921a1.38 1.38 0 0 0-.612-.637c-.282-.156-.656-.234-1.122-.234h-1.826v7.656h-1.039Zm13.116-8.578h1.039v5.68a2.99 2.99 0 0 1-.415 1.571c-.273.458-.66.819-1.16 1.084-.5.263-1.086.394-1.759.394-.673 0-1.259-.131-1.759-.394a2.933 2.933 0 0 1-1.165-1.084 3.025 3.025 0 0 1-.41-1.571v-5.68h1.039v5.596c0 .419.092.792.276 1.119.184.323.447.579.788.766.343.184.753.276 1.231.276.477 0 .888-.092 1.231-.276.344-.187.606-.443.788-.766.184-.327.276-.7.276-1.119v-5.596Zm9.329-.402-2.764 10.27h-.905l2.764-10.27h.905Zm4.623.402h1.24l2.915 7.121h.101l2.915-7.121h1.24v8.578h-.972v-6.517h-.084l-2.68 6.517h-.939l-2.68-6.517h-.084v6.517h-.972v-8.578Zm10.36 8.578v-6.433h.988v6.433h-.988Zm.502-7.505a.701.701 0 0 1-.498-.197.634.634 0 0 1-.206-.474c0-.184.069-.342.206-.473a.701.701 0 0 1 .498-.197c.193 0 .358.066.494.197.14.131.21.289.21.473 0 .185-.07.342-.21.474a.687.687 0 0 1-.494.197Zm3.285 3.635v3.87h-.989v-6.433h.955v1.005h.084c.151-.327.38-.589.687-.787.307-.201.704-.302 1.19-.302.435 0 .816.089 1.143.268.327.176.581.444.762.804.182.358.273.81.273 1.357v4.088h-.989v-4.021c0-.505-.131-.899-.393-1.181-.263-.285-.623-.427-1.081-.427a1.72 1.72 0 0 0-.846.205c-.246.137-.44.337-.582.599-.143.263-.214.581-.214.955Zm9.966 1.24v-3.803h.988v6.433h-.988v-1.089h-.068c-.15.327-.385.605-.703.834-.319.226-.721.339-1.206.339a2.15 2.15 0 0 1-1.073-.264 1.845 1.845 0 0 1-.737-.804c-.179-.36-.268-.814-.268-1.361v-4.088h.988v4.021c0 .469.132.843.394 1.122.265.28.603.419 1.014.419.246 0 .495-.063.75-.188.256-.126.471-.319.645-.578.176-.26.264-.591.264-.993Zm5.596-3.803v.838h-3.334v-.838h3.334Zm-2.362-1.542h.989v6.132c0 .28.04.489.121.629.084.137.19.229.318.276.132.045.27.067.415.067a1.648 1.648 0 0 0 .436-.05l.201.888a2.03 2.03 0 0 1-.281.075c-.12.028-.272.042-.456.042-.28 0-.553-.06-.821-.18a1.625 1.625 0 0 1-.662-.549c-.173-.245-.26-.555-.26-.929v-6.401Zm6.478 8.109c-.62 0-1.155-.136-1.605-.41a2.758 2.758 0 0 1-1.034-1.156c-.24-.497-.36-1.075-.36-1.734s.12-1.24.36-1.743a2.849 2.849 0 0 1 1.013-1.181c.436-.285.944-.427 1.525-.427.335 0 .666.056.993.168.326.111.624.293.892.544.268.249.482.578.641.989.159.41.239.915.239 1.516v.419h-4.96v-.855h3.954c0-.363-.072-.687-.218-.971a1.641 1.641 0 0 0-.611-.675 1.71 1.71 0 0 0-.93-.247c-.394 0-.734.098-1.022.293a1.923 1.923 0 0 0-.657.754 2.21 2.21 0 0 0-.231.997v.57c0 .486.084.897.251 1.235.171.335.407.591.708.767.302.173.652.259 1.052.259.259 0 .494-.036.703-.108.213-.076.395-.188.549-.336.154-.15.272-.337.356-.561l.955.268a2.12 2.12 0 0 1-.507.855c-.237.243-.53.433-.879.569a3.265 3.265 0 0 1-1.177.201Zm31.969.939v-10.723h.687v10.723h-.687Zm2.312-7.506a1.314 1.314 0 0 0-.612-.989c-.357-.234-.796-.351-1.315-.351-.38 0-.712.061-.997.184a1.6 1.6 0 0 0-.662.507 1.216 1.216 0 0 0-.234.733c0 .229.054.425.163.59.112.162.254.298.427.406.174.107.355.195.545.264.19.067.364.122.524.164l.871.234c.223.059.472.14.745.243.277.104.541.245.792.423.254.176.463.402.628.679.165.276.247.615.247 1.018 0 .463-.121.882-.364 1.256-.24.374-.592.672-1.056.892-.46.221-1.02.331-1.679.331-.614 0-1.146-.099-1.596-.297a2.54 2.54 0 0 1-1.056-.83 2.367 2.367 0 0 1-.431-1.235h1.072c.028.324.137.592.327.804.193.209.436.366.729.469.296.101.614.151.955.151.396 0 .752-.064 1.068-.193.315-.131.565-.312.75-.544.184-.235.276-.508.276-.821 0-.285-.08-.517-.239-.695a1.748 1.748 0 0 0-.628-.436 6.586 6.586 0 0 0-.842-.293l-1.055-.302c-.671-.193-1.201-.468-1.592-.825-.391-.357-.586-.825-.586-1.403 0-.48.129-.899.389-1.257.263-.36.614-.639 1.056-.837a3.563 3.563 0 0 1 1.487-.302c.552 0 1.044.099 1.474.297.43.196.771.464 1.022.805.254.34.388.727.402 1.16h-1.005Zm5.611 6.551c-.631 0-1.168-.172-1.612-.516-.444-.346-.783-.847-1.018-1.503-.235-.659-.352-1.455-.352-2.388 0-.927.117-1.718.352-2.375.237-.659.578-1.161 1.022-1.507.447-.349.983-.524 1.608-.524.626 0 1.161.175 1.605.524.446.346.787.848 1.022 1.507.237.657.356 1.448.356 2.375 0 .933-.118 1.729-.352 2.388-.235.656-.574 1.157-1.018 1.503-.444.344-.982.516-1.613.516Zm0-.922c.626 0 1.112-.301 1.458-.905.346-.603.519-1.463.519-2.58 0-.742-.079-1.375-.238-1.897-.157-.522-.383-.92-.679-1.194a1.5 1.5 0 0 0-1.06-.41c-.62 0-1.104.306-1.453.917-.349.609-.524 1.47-.524 2.584 0 .743.079 1.374.235 1.894.156.519.381.914.674 1.185.296.271.652.406 1.068.406Zm5.442.871a.727.727 0 0 1-.532-.222.725.725 0 0 1-.222-.532c0-.206.074-.383.222-.531a.727.727 0 0 1 .532-.222c.207 0 .384.074.532.222a.725.725 0 0 1 .222.531.779.779 0 0 1-.377.654.716.716 0 0 1-.377.1Zm2.763-.067v-.754l2.831-3.099c.332-.363.606-.679.821-.947.215-.271.374-.525.478-.762.106-.24.159-.491.159-.754 0-.301-.073-.563-.218-.783a1.412 1.412 0 0 0-.587-.511 1.897 1.897 0 0 0-.837-.18c-.33 0-.617.068-.863.205a1.424 1.424 0 0 0-.566.565 1.775 1.775 0 0 0-.196.855h-.989c0-.503.116-.944.348-1.324.232-.379.547-.675.946-.888a2.855 2.855 0 0 1 1.353-.318c.503 0 .948.106 1.336.318.389.213.693.499.914.859.22.36.33.761.33 1.202a2.6 2.6 0 0 1-.171.926c-.112.299-.307.632-.587 1.001-.276.366-.66.812-1.152 1.34l-1.926 2.061v.067h3.987v.921h-5.411Zm10.351.118c-.553 0-1.046-.095-1.479-.285a2.532 2.532 0 0 1-1.026-.792 2.127 2.127 0 0 1-.411-1.185h1.056c.022.276.117.515.285.716.167.198.386.352.657.461.271.109.571.163.901.163.368 0 .695-.064.98-.192.285-.129.508-.308.67-.537.162-.229.243-.494.243-.795 0-.316-.078-.594-.235-.834a1.55 1.55 0 0 0-.687-.57c-.301-.136-.67-.205-1.105-.205h-.687v-.921h.687c.34 0 .639-.062.896-.185a1.392 1.392 0 0 0 .829-1.306c0-.291-.064-.544-.192-.759a1.318 1.318 0 0 0-.545-.502 1.763 1.763 0 0 0-.821-.18c-.296 0-.575.054-.837.163-.26.106-.472.261-.637.465a1.21 1.21 0 0 0-.268.729h-1.005c.016-.45.152-.843.406-1.181.254-.341.586-.606.997-.796.413-.19.867-.285 1.361-.285.531 0 .986.108 1.365.323.38.212.672.492.876.841.204.349.306.726.306 1.131 0 .483-.127.895-.382 1.236a1.927 1.927 0 0 1-1.026.708v.067c.542.089.965.32 1.269.691.305.369.457.825.457 1.37 0 .466-.127.885-.381 1.256a2.58 2.58 0 0 1-1.031.871c-.435.213-.931.319-1.486.319Zm7.569 0c-.491 0-.934-.098-1.328-.294a2.46 2.46 0 0 1-.946-.804 2.198 2.198 0 0 1-.39-1.164h1.006c.039.388.215.709.527.963.316.252.693.377 1.131.377.352 0 .665-.082.938-.247.277-.165.493-.391.65-.678a2.02 2.02 0 0 0 .238-.985c0-.374-.082-.708-.247-1.001a1.809 1.809 0 0 0-.67-.699 1.89 1.89 0 0 0-.976-.26 2.695 2.695 0 0 0-.808.121 2.234 2.234 0 0 0-.683.315l-.972-.118.52-4.222h4.456v.922h-3.585l-.302 2.53h.051a2.518 2.518 0 0 1 1.491-.486c.525 0 .992.125 1.403.377.413.248.737.589.972 1.022.237.433.356.927.356 1.482 0 .548-.123 1.036-.369 1.466a2.688 2.688 0 0 1-1.005 1.014 2.867 2.867 0 0 1-1.458.369Zm7.637 0c-.492 0-.934-.098-1.328-.294a2.452 2.452 0 0 1-.946-.804 2.181 2.181 0 0 1-.39-1.164h1.005c.039.388.215.709.528.963.316.252.693.377 1.131.377.352 0 .665-.082.938-.247.277-.165.493-.391.649-.678.16-.291.239-.619.239-.985 0-.374-.082-.708-.247-1.001a1.809 1.809 0 0 0-.67-.699 1.89 1.89 0 0 0-.976-.26 2.69 2.69 0 0 0-.808.121 2.234 2.234 0 0 0-.683.315l-.972-.118.519-4.222h4.457v.922h-3.585l-.302 2.53h.05c.176-.14.397-.256.662-.348.265-.092.542-.138.829-.138.525 0 .993.125 1.404.377.413.248.737.589.971 1.022.238.433.356.927.356 1.482 0 .548-.122 1.036-.368 1.466a2.688 2.688 0 0 1-1.005 1.014 2.873 2.873 0 0 1-1.458.369Z" opacity=".5" fill="#fff"/><path d="M22.101 287.967v-8.578H25c.67 0 1.22.114 1.65.343.43.226.748.538.955.934.206.397.31.848.31 1.353s-.104.954-.31 1.345a2.18 2.18 0 0 1-.951.921c-.427.221-.973.331-1.638.331h-2.345v-.938h2.312c.458 0 .826-.067 1.105-.201a1.27 1.27 0 0 0 .612-.57c.128-.248.193-.544.193-.888 0-.343-.065-.644-.193-.9a1.31 1.31 0 0 0-.616-.595c-.282-.143-.654-.214-1.118-.214H23.14v7.657H22.1Zm4.038-3.854 2.11 3.854h-1.205l-2.078-3.854h1.173Zm3.858 3.854h-1.089l3.15-8.578h1.072l3.15 8.578h-1.089l-2.563-7.221h-.067l-2.564 7.221Zm.402-3.351h4.39v.921H30.4v-.921Zm7.217-5.227h1.24l2.915 7.12h.1l2.916-7.12h1.24v8.578h-.972v-6.518h-.084l-2.68 6.518h-.938l-2.681-6.518h-.084v6.518h-.972v-8.578Zm43.445 0v8.578h-1.039v-7.489h-.05l-2.094 1.39v-1.055l2.144-1.424h1.04Zm3.452 7.405-.068.452c-.047.319-.12.659-.217 1.022-.095.363-.194.705-.298 1.027-.103.321-.188.576-.255.766h-.754l.142-.708a26.755 26.755 0 0 0 .327-2.09l.05-.469h1.073Zm4.313 1.29c-.631 0-1.169-.172-1.613-.515-.444-.346-.783-.848-1.018-1.504-.234-.659-.352-1.455-.352-2.387 0-.927.118-1.719.352-2.375.238-.659.578-1.162 1.022-1.508.447-.349.983-.524 1.609-.524.625 0 1.16.175 1.604.524.447.346.787.849 1.022 1.508.237.656.356 1.448.356 2.375 0 .932-.117 1.728-.352 2.387-.234.656-.574 1.158-1.018 1.504-.444.343-.981.515-1.612.515Zm0-.921c.625 0 1.111-.302 1.457-.905.346-.603.52-1.463.52-2.58 0-.743-.08-1.376-.24-1.898-.156-.522-.382-.92-.678-1.193a1.497 1.497 0 0 0-1.06-.411c-.62 0-1.104.306-1.453.917-.349.609-.523 1.471-.523 2.585 0 .742.078 1.374.234 1.893.157.519.381.914.675 1.185.296.271.652.407 1.068.407Zm7.589-7.774v8.578h-1.039v-7.489h-.05l-2.094 1.39v-1.055l2.144-1.424h1.04Zm2.266 6.819v-.855l3.77-5.964h.62v1.323h-.419l-2.848 4.507v.067h5.076v.922h-6.199Zm4.038 1.759v-8.578h.988v8.578h-.988Zm4.065.067a.725.725 0 0 1-.532-.222.727.727 0 0 1-.222-.532c0-.207.074-.384.222-.532a.725.725 0 0 1 .532-.222c.207 0 .384.074.532.222a.725.725 0 0 1 .222.532.71.71 0 0 1-.105.377.79.79 0 0 1-.272.276.719.719 0 0 1-.377.101Zm2.511-.067v-.754l2.831-3.1c.333-.363.606-.678.821-.946.215-.271.375-.525.478-.763.106-.24.159-.491.159-.754 0-.301-.073-.562-.218-.783a1.416 1.416 0 0 0-.586-.511 1.904 1.904 0 0 0-.838-.18c-.329 0-.617.069-.863.205a1.412 1.412 0 0 0-.565.566 1.774 1.774 0 0 0-.197.854h-.989c0-.502.116-.944.348-1.323a2.41 2.41 0 0 1 .947-.888 2.856 2.856 0 0 1 1.353-.319c.502 0 .948.107 1.336.319.388.212.692.498.913.858.22.361.331.761.331 1.202 0 .316-.057.625-.172.926-.112.299-.307.633-.586 1.001-.277.366-.661.813-1.152 1.341l-1.927 2.06v.067h3.988v.922h-5.412Zm7.409 0 3.837-7.59v-.067h-4.423v-.921h5.495v.971l-3.82 7.607h-1.089Zm9.805 0v-6.434h.955v1.005h.083c.135-.343.351-.61.65-.8.298-.192.657-.289 1.076-.289.425 0 .778.097 1.06.289.285.19.507.457.666.8h.067c.165-.332.412-.596.741-.791.33-.198.725-.298 1.186-.298.575 0 1.045.181 1.411.541.366.357.549.914.549 1.671v4.306h-.989v-4.306c0-.475-.13-.814-.389-1.018a1.443 1.443 0 0 0-.918-.306c-.452 0-.802.137-1.051.411-.248.271-.373.614-.373 1.03v4.189h-1.005v-4.407c0-.365-.119-.66-.356-.883-.237-.227-.543-.34-.917-.34-.257 0-.497.069-.721.206-.22.136-.399.326-.536.569-.134.24-.201.518-.201.834v4.021h-.988Zm10.251 0v-6.434h.989v6.434h-.989Zm.503-7.506a.705.705 0 0 1-.499-.197.635.635 0 0 1-.205-.473c0-.185.069-.342.205-.474a.704.704 0 0 1 .499-.196.69.69 0 0 1 .494.196c.14.132.209.289.209.474a.624.624 0 0 1-.209.473.69.69 0 0 1-.494.197Zm3.285 3.636v3.87h-.989v-6.434h.955v1.005h.084c.151-.326.38-.589.687-.787.307-.201.703-.302 1.189-.302.436 0 .817.09 1.144.268.327.176.581.444.762.805.182.357.272.809.272 1.357v4.088h-.988v-4.021c0-.506-.131-.899-.394-1.181-.262-.285-.623-.428-1.08-.428-.316 0-.598.069-.847.206a1.468 1.468 0 0 0-.582.599c-.142.262-.213.58-.213.955Zm9.965 1.239v-3.803h.989v6.434h-.989v-1.089h-.067a2.111 2.111 0 0 1-.704.833c-.318.226-.72.34-1.206.34-.402 0-.759-.088-1.072-.264a1.841 1.841 0 0 1-.737-.805c-.179-.36-.268-.814-.268-1.361v-4.088h.988v4.021c0 .469.131.843.394 1.123.265.279.603.419 1.013.419.246 0 .496-.063.75-.189.257-.126.472-.318.645-.578.176-.26.264-.591.264-.993Zm5.597-3.803v.838h-3.334v-.838h3.334Zm-2.362-1.541h.988v6.132c0 .279.041.488.122.628a.63.63 0 0 0 .318.277c.131.044.269.067.415.067.109 0 .198-.006.268-.017l.167-.034.201.888a2.066 2.066 0 0 1-.737.118c-.279 0-.553-.061-.821-.181a1.637 1.637 0 0 1-.662-.548c-.173-.246-.259-.556-.259-.93v-6.4Zm6.477 8.109c-.62 0-1.154-.137-1.604-.411a2.74 2.74 0 0 1-1.034-1.156c-.241-.497-.361-1.075-.361-1.734s.12-1.24.361-1.742c.242-.506.58-.899 1.013-1.181.436-.285.944-.428 1.525-.428.335 0 .666.056.992.168.327.112.625.293.893.544.268.249.481.578.64.989.16.41.239.916.239 1.516v.419h-4.959v-.854h3.954c0-.363-.073-.687-.218-.972a1.632 1.632 0 0 0-.611-.674 1.714 1.714 0 0 0-.93-.248c-.394 0-.735.098-1.022.294a1.927 1.927 0 0 0-.658.754c-.153.309-.23.642-.23.996v.57c0 .486.084.898.251 1.236.17.335.406.59.708.766.302.173.652.26 1.051.26.26 0 .495-.036.704-.109.212-.075.395-.187.549-.335.153-.151.272-.338.356-.561l.955.268c-.101.324-.27.608-.507.854a2.48 2.48 0 0 1-.88.57 3.261 3.261 0 0 1-1.177.201Zm5.156-8.712v8.578h-.988v-8.578h.988Zm2.447 10.99c-.167 0-.316-.014-.448-.042a1.184 1.184 0 0 1-.272-.075l.251-.871c.241.061.453.084.637.067a.764.764 0 0 0 .49-.247c.145-.145.278-.381.398-.708l.184-.503-2.379-6.467h1.072l1.776 5.127h.067l1.776-5.127h1.073l-2.731 7.372a2.786 2.786 0 0 1-.457.825 1.701 1.701 0 0 1-.632.49 1.957 1.957 0 0 1-.805.159Zm15.245-8.31a3.06 3.06 0 0 0-.365-.758 2.333 2.333 0 0 0-.532-.578 2.237 2.237 0 0 0-.695-.364 2.766 2.766 0 0 0-.854-.126c-.509 0-.971.131-1.387.394-.416.262-.747.649-.993 1.16-.245.511-.368 1.138-.368 1.881 0 .742.124 1.369.373 1.88.248.511.585.898 1.009 1.161.424.262.902.393 1.433.393.491 0 .924-.104 1.298-.314.377-.212.67-.511.88-.896.212-.388.318-.845.318-1.37l.318.067h-2.58v-.921h3.267v.921c0 .707-.151 1.321-.452 1.843a3.13 3.13 0 0 1-1.24 1.215c-.525.285-1.128.427-1.809.427-.76 0-1.427-.179-2.003-.536-.572-.358-1.019-.866-1.34-1.525-.318-.659-.477-1.441-.477-2.345 0-.679.09-1.289.272-1.831a4.048 4.048 0 0 1 .779-1.39 3.41 3.41 0 0 1 1.189-.88 3.676 3.676 0 0 1 1.513-.306c.452 0 .874.069 1.264.206a3.401 3.401 0 0 1 1.827 1.457c.206.341.349.719.427 1.135h-1.072Zm2.901 5.898v-8.578h2.999c.598 0 1.091.103 1.479.31.388.203.677.479.867.825.19.343.285.724.285 1.143 0 .369-.066.673-.197.913-.129.24-.299.43-.511.57a2.32 2.32 0 0 1-.683.31v.084c.262.016.526.109.792.276.265.168.487.408.666.721.178.312.268.695.268 1.147 0 .43-.098.817-.294 1.16-.195.344-.504.616-.925.817-.422.201-.971.302-1.646.302h-3.1Zm1.039-.922h2.061c.678 0 1.16-.131 1.445-.393.287-.266.431-.587.431-.964 0-.29-.074-.558-.222-.804a1.607 1.607 0 0 0-.632-.595c-.274-.151-.598-.226-.972-.226h-2.111v2.982Zm0-3.887h1.927c.312 0 .594-.061.846-.184.254-.123.455-.296.603-.519.151-.224.226-.486.226-.788 0-.377-.131-.696-.394-.959-.262-.265-.678-.398-1.248-.398h-1.96v2.848Zm39.804 5.881v-10.723h.687v10.723h-.687Zm2.312-7.506a1.314 1.314 0 0 0-.611-.988c-.358-.235-.796-.352-1.316-.352-.379 0-.712.061-.996.184a1.593 1.593 0 0 0-.662.507 1.21 1.21 0 0 0-.235.733c0 .229.055.426.164.591.111.161.254.297.427.406.173.106.354.194.544.264.19.067.365.121.524.163l.871.235c.224.058.472.139.746.243.276.103.54.244.791.423.254.176.464.402.629.678.164.277.247.616.247 1.018 0 .463-.122.882-.365 1.256-.24.375-.592.672-1.055.893-.461.22-1.021.331-1.68.331-.614 0-1.146-.1-1.596-.298a2.55 2.55 0 0 1-1.055-.829 2.375 2.375 0 0 1-.432-1.236h1.073c.028.324.137.592.326.804.193.21.436.366.729.47.296.1.615.15.955.15.397 0 .753-.064 1.068-.192.316-.132.566-.313.75-.545a1.29 1.29 0 0 0 .276-.821c0-.285-.079-.516-.238-.695a1.752 1.752 0 0 0-.629-.436 6.727 6.727 0 0 0-.841-.293l-1.056-.301c-.67-.193-1.201-.468-1.592-.826-.391-.357-.586-.825-.586-1.403 0-.48.13-.899.39-1.256.262-.361.614-.64 1.055-.838.444-.201.94-.302 1.487-.302.553 0 1.044.1 1.474.298.43.195.771.463 1.022.804.254.341.388.727.402 1.16h-1.005Zm5.612 6.551c-.631 0-1.169-.172-1.613-.515-.444-.346-.783-.848-1.018-1.504-.234-.659-.351-1.455-.351-2.387 0-.927.117-1.719.351-2.375.238-.659.578-1.162 1.022-1.508.447-.349.983-.524 1.609-.524.625 0 1.16.175 1.604.524.447.346.787.849 1.022 1.508.237.656.356 1.448.356 2.375 0 .932-.117 1.728-.352 2.387-.234.656-.574 1.158-1.018 1.504-.444.343-.981.515-1.612.515Zm0-.921c.625 0 1.111-.302 1.457-.905.347-.603.52-1.463.52-2.58 0-.743-.08-1.376-.239-1.898-.156-.522-.383-.92-.679-1.193a1.495 1.495 0 0 0-1.059-.411c-.62 0-1.105.306-1.454.917-.349.609-.523 1.471-.523 2.585 0 .742.078 1.374.234 1.893.157.519.381.914.675 1.185.296.271.652.407 1.068.407Zm5.442.871a.725.725 0 0 1-.532-.222.727.727 0 0 1-.222-.532c0-.207.074-.384.222-.532a.725.725 0 0 1 .532-.222c.206 0 .384.074.532.222a.725.725 0 0 1 .222.532.71.71 0 0 1-.105.377.79.79 0 0 1-.272.276.721.721 0 0 1-.377.101Zm5.443.05c-.631 0-1.169-.172-1.613-.515-.444-.346-.783-.848-1.018-1.504-.234-.659-.352-1.455-.352-2.387 0-.927.118-1.719.352-2.375.238-.659.578-1.162 1.022-1.508.447-.349.983-.524 1.609-.524.625 0 1.16.175 1.604.524.447.346.787.849 1.022 1.508.237.656.356 1.448.356 2.375 0 .932-.117 1.728-.352 2.387-.234.656-.574 1.158-1.018 1.504-.444.343-.981.515-1.612.515Zm0-.921c.625 0 1.111-.302 1.457-.905.347-.603.52-1.463.52-2.58 0-.743-.08-1.376-.239-1.898-.156-.522-.383-.92-.679-1.193a1.495 1.495 0 0 0-1.059-.411c-.62 0-1.105.306-1.454.917-.349.609-.523 1.471-.523 2.585 0 .742.078 1.374.234 1.893.157.519.381.914.675 1.185.296.271.652.407 1.068.407Zm7.636.921c-.631 0-1.168-.172-1.612-.515-.444-.346-.783-.848-1.018-1.504-.235-.659-.352-1.455-.352-2.387 0-.927.117-1.719.352-2.375.237-.659.578-1.162 1.022-1.508.447-.349.983-.524 1.608-.524.626 0 1.161.175 1.605.524.446.346.787.849 1.022 1.508.237.656.356 1.448.356 2.375 0 .932-.118 1.728-.352 2.387-.235.656-.574 1.158-1.018 1.504-.444.343-.982.515-1.613.515Zm0-.921c.626 0 1.112-.302 1.458-.905.346-.603.519-1.463.519-2.58 0-.743-.079-1.376-.238-1.898-.157-.522-.383-.92-.679-1.193a1.496 1.496 0 0 0-1.06-.411c-.62 0-1.104.306-1.453.917-.349.609-.524 1.471-.524 2.585 0 .742.079 1.374.235 1.893.156.519.381.914.674 1.185.296.271.652.407 1.068.407Zm7.637.921c-.631 0-1.168-.172-1.612-.515-.444-.346-.784-.848-1.018-1.504-.235-.659-.352-1.455-.352-2.387 0-.927.117-1.719.352-2.375.237-.659.578-1.162 1.022-1.508.447-.349.983-.524 1.608-.524.626 0 1.16.175 1.604.524.447.346.788.849 1.022 1.508.238.656.356 1.448.356 2.375 0 .932-.117 1.728-.351 2.387-.235.656-.574 1.158-1.018 1.504-.444.343-.982.515-1.613.515Zm0-.921c.626 0 1.111-.302 1.458-.905.346-.603.519-1.463.519-2.58 0-.743-.079-1.376-.239-1.898-.156-.522-.382-.92-.678-1.193a1.498 1.498 0 0 0-1.06-.411c-.62 0-1.104.306-1.453.917-.349.609-.524 1.471-.524 2.585 0 .742.078 1.374.235 1.893.156.519.381.914.674 1.185.296.271.652.407 1.068.407Zm4.956.804v-.754l2.832-3.1c.332-.363.606-.678.821-.946a3.48 3.48 0 0 0 .477-.763c.106-.24.159-.491.159-.754a1.387 1.387 0 0 0-.804-1.294 1.901 1.901 0 0 0-.838-.18c-.329 0-.617.069-.863.205a1.418 1.418 0 0 0-.565.566 1.774 1.774 0 0 0-.197.854h-.988c0-.502.116-.944.347-1.323.232-.38.548-.676.947-.888a2.844 2.844 0 0 1 1.353-.319c.502 0 .948.106 1.336.319.388.212.692.498.913.858.221.361.331.761.331 1.202 0 .316-.057.625-.172.926-.111.299-.307.633-.586 1.001-.277.366-.661.813-1.152 1.341l-1.927 2.06v.067h3.988v.922h-5.412Zm10.351.117c-.553 0-1.046-.095-1.478-.285a2.535 2.535 0 0 1-1.027-.791 2.13 2.13 0 0 1-.41-1.186h1.055c.023.277.118.515.285.716.168.199.387.352.658.461.271.109.571.164.9.164.369 0 .696-.065.98-.193.285-.129.509-.307.671-.536.162-.229.243-.494.243-.796 0-.316-.079-.593-.235-.834a1.548 1.548 0 0 0-.687-.569c-.302-.137-.67-.205-1.106-.205h-.687v-.922h.687c.341 0 .64-.061.897-.184a1.39 1.39 0 0 0 .829-1.307c0-.29-.064-.543-.193-.758a1.318 1.318 0 0 0-.544-.503 1.766 1.766 0 0 0-.821-.18c-.296 0-.575.055-.838.163-.26.107-.472.262-.637.465a1.216 1.216 0 0 0-.268.729h-1.005c.017-.449.152-.843.406-1.181.255-.341.587-.606.997-.796.414-.19.867-.285 1.362-.285.53 0 .985.108 1.365.323.38.212.672.493.875.842.204.349.306.726.306 1.131 0 .483-.127.895-.381 1.235a1.927 1.927 0 0 1-1.026.708v.067c.542.09.965.32 1.269.691.304.369.457.825.457 1.37 0 .466-.128.885-.382 1.256a2.588 2.588 0 0 1-1.03.872c-.436.212-.931.318-1.487.318Zm8.759-8.695v8.578h-1.038v-7.489h-.051l-2.094 1.39v-1.055l2.145-1.424h1.038Zm9.916-.402-2.765 10.27h-.905l2.765-10.27h.905Zm10.487 3.082a3.06 3.06 0 0 0-.365-.758 2.333 2.333 0 0 0-.532-.578 2.237 2.237 0 0 0-.695-.364 2.768 2.768 0 0 0-.855-.126c-.508 0-.97.131-1.386.394-.416.262-.747.649-.993 1.16-.245.511-.368 1.138-.368 1.881 0 .742.124 1.369.373 1.88.248.511.585.898 1.009 1.161.424.262.902.393 1.433.393.491 0 .924-.104 1.298-.314.377-.212.67-.511.88-.896.212-.388.318-.845.318-1.37l.318.067h-2.58v-.921h3.267v.921c0 .707-.151 1.321-.452 1.843a3.13 3.13 0 0 1-1.24 1.215c-.525.285-1.128.427-1.809.427-.76 0-1.427-.179-2.003-.536-.572-.358-1.019-.866-1.34-1.525-.318-.659-.477-1.441-.477-2.345 0-.679.09-1.289.272-1.831a4.048 4.048 0 0 1 .779-1.39 3.401 3.401 0 0 1 1.189-.88 3.674 3.674 0 0 1 1.512-.306c.453 0 .874.069 1.265.206a3.401 3.401 0 0 1 1.827 1.457c.206.341.349.719.427 1.135h-1.072Zm2.901 5.898v-8.578h2.999c.598 0 1.091.103 1.479.31.388.203.677.479.867.825.19.343.285.724.285 1.143 0 .369-.066.673-.197.913-.129.24-.299.43-.511.57a2.32 2.32 0 0 1-.683.31v.084c.262.016.526.109.792.276.265.168.487.408.666.721.178.312.268.695.268 1.147 0 .43-.098.817-.294 1.16-.195.344-.504.616-.925.817-.422.201-.971.302-1.646.302h-3.1Zm1.039-.922h2.061c.678 0 1.16-.131 1.445-.393.287-.266.431-.587.431-.964 0-.29-.074-.558-.222-.804a1.607 1.607 0 0 0-.632-.595c-.274-.151-.598-.226-.972-.226h-2.111v2.982Zm0-3.887h1.927c.312 0 .594-.061.846-.184.254-.123.455-.296.603-.519.151-.224.226-.486.226-.788 0-.377-.131-.696-.394-.959-.262-.265-.678-.398-1.248-.398h-1.96v2.848Zm12.848-4.171-2.764 10.27h-.905l2.764-10.27h.905Zm4.623.402h1.24l2.915 7.12h.101l2.915-7.12h1.24v8.578h-.972v-6.518h-.084l-2.68 6.518h-.939l-2.68-6.518h-.084v6.518h-.972v-8.578Zm10.36 8.578v-6.434h.988v6.434h-.988Zm.502-7.506a.703.703 0 0 1-.498-.197.631.631 0 0 1-.205-.473c0-.185.068-.342.205-.474a.702.702 0 0 1 .498-.196c.193 0 .358.065.494.196.14.132.21.289.21.474 0 .184-.07.342-.21.473a.687.687 0 0 1-.494.197Zm3.285 3.636v3.87h-.988v-6.434h.955v1.005h.083c.151-.326.38-.589.687-.787.307-.201.704-.302 1.19-.302.435 0 .817.09 1.143.268.327.176.581.444.763.805.181.357.272.809.272 1.357v4.088h-.989v-4.021c0-.506-.131-.899-.393-1.181-.263-.285-.623-.428-1.081-.428a1.72 1.72 0 0 0-.846.206c-.246.136-.44.336-.582.599-.143.262-.214.58-.214.955Zm9.966 1.239v-3.803h.988v6.434h-.988v-1.089h-.067a2.12 2.12 0 0 1-.704.833c-.318.226-.721.34-1.206.34a2.15 2.15 0 0 1-1.073-.264 1.853 1.853 0 0 1-.737-.805c-.179-.36-.268-.814-.268-1.361v-4.088h.989v4.021c0 .469.131.843.393 1.123a1.34 1.34 0 0 0 1.014.419c.246 0 .496-.063.75-.189.257-.126.472-.318.645-.578.176-.26.264-.591.264-.993Zm5.596-3.803v.838h-3.334v-.838h3.334Zm-2.362-1.541h.989v6.132c0 .279.04.488.121.628.084.137.19.229.318.277.132.044.27.067.415.067.109 0 .198-.006.268-.017l.168-.034.201.888a2.008 2.008 0 0 1-.281.076c-.12.028-.272.042-.456.042a1.99 1.99 0 0 1-.821-.181 1.63 1.63 0 0 1-.662-.548c-.173-.246-.26-.556-.26-.93v-6.4Zm6.478 8.109c-.62 0-1.155-.137-1.605-.411a2.752 2.752 0 0 1-1.034-1.156c-.24-.497-.36-1.075-.36-1.734s.12-1.24.36-1.742a2.837 2.837 0 0 1 1.014-1.181c.435-.285.943-.428 1.524-.428.335 0 .666.056.993.168.327.112.624.293.892.544.268.249.482.578.641.989.159.41.239.916.239 1.516v.419h-4.96v-.854h3.954c0-.363-.072-.687-.217-.972a1.642 1.642 0 0 0-.612-.674 1.709 1.709 0 0 0-.93-.248 1.77 1.77 0 0 0-1.022.294 1.916 1.916 0 0 0-.657.754 2.205 2.205 0 0 0-.231.996v.57c0 .486.084.898.251 1.236.171.335.407.59.708.766.302.173.652.26 1.052.26.259 0 .494-.036.703-.109.213-.075.395-.187.549-.335.154-.151.272-.338.356-.561l.955.268c-.1.324-.269.608-.507.854-.237.243-.53.433-.879.57a3.265 3.265 0 0 1-1.177.201Zm37.641.622V278h.687v10.723h-.687Zm2.312-7.506a1.314 1.314 0 0 0-.612-.989c-.357-.234-.796-.352-1.315-.352-.38 0-.712.062-.997.185a1.6 1.6 0 0 0-.662.507 1.216 1.216 0 0 0-.234.733c0 .229.054.425.163.59.112.162.254.298.427.406.174.107.355.194.545.264.19.067.364.122.523.164l.872.234c.223.059.472.14.745.243.277.103.541.244.792.423.254.176.463.402.628.679.165.276.247.615.247 1.018 0 .463-.121.882-.364 1.256-.24.374-.592.672-1.056.892-.46.221-1.02.331-1.679.331-.615 0-1.146-.099-1.596-.297a2.548 2.548 0 0 1-1.056-.83 2.367 2.367 0 0 1-.431-1.235h1.072c.028.324.137.592.327.804.193.209.436.366.729.469.296.101.614.151.955.151.396 0 .752-.064 1.068-.193.315-.131.565-.313.75-.544.184-.235.276-.508.276-.821 0-.285-.08-.517-.239-.696a1.758 1.758 0 0 0-.628-.435c-.26-.112-.54-.21-.842-.293l-1.055-.302c-.671-.193-1.201-.468-1.592-.825-.391-.357-.586-.825-.586-1.403 0-.48.129-.899.389-1.257.263-.36.614-.639 1.056-.837a3.563 3.563 0 0 1 1.487-.302c.552 0 1.044.099 1.474.297.43.196.771.464 1.022.805.254.34.388.727.402 1.16h-1.005Zm5.611 6.551c-.631 0-1.168-.172-1.612-.516-.444-.346-.783-.847-1.018-1.503-.235-.659-.352-1.455-.352-2.388 0-.927.117-1.718.352-2.375.237-.659.578-1.161 1.022-1.507.447-.349.983-.524 1.608-.524.626 0 1.161.175 1.605.524.446.346.787.848 1.022 1.507.237.657.356 1.448.356 2.375 0 .933-.118 1.729-.352 2.388-.235.656-.574 1.157-1.018 1.503-.444.344-.982.516-1.613.516Zm0-.922c.626 0 1.112-.301 1.458-.905.346-.603.519-1.463.519-2.58 0-.742-.079-1.375-.238-1.897-.157-.522-.383-.92-.679-1.194a1.5 1.5 0 0 0-1.06-.41c-.62 0-1.104.305-1.453.917-.349.609-.524 1.47-.524 2.584 0 .743.079 1.374.235 1.894.156.519.381.914.674 1.185.296.271.652.406 1.068.406Zm5.442.871a.727.727 0 0 1-.532-.222.725.725 0 0 1-.222-.532c0-.206.074-.384.222-.532a.727.727 0 0 1 .532-.222c.207 0 .384.074.532.222a.727.727 0 0 1 .222.532.707.707 0 0 1-.105.377.776.776 0 0 1-.272.277.716.716 0 0 1-.377.1Zm5.443.051c-.631 0-1.168-.172-1.612-.516-.444-.346-.784-.847-1.018-1.503-.235-.659-.352-1.455-.352-2.388 0-.927.117-1.718.352-2.375.237-.659.578-1.161 1.022-1.507.447-.349.983-.524 1.608-.524.626 0 1.16.175 1.604.524.447.346.788.848 1.022 1.507.238.657.356 1.448.356 2.375 0 .933-.117 1.729-.351 2.388-.235.656-.574 1.157-1.018 1.503-.444.344-.982.516-1.613.516Zm0-.922c.626 0 1.112-.301 1.458-.905.346-.603.519-1.463.519-2.58 0-.742-.079-1.375-.239-1.897-.156-.522-.382-.92-.678-1.194a1.5 1.5 0 0 0-1.06-.41c-.62 0-1.104.305-1.453.917-.349.609-.524 1.47-.524 2.584 0 .743.078 1.374.235 1.894.156.519.381.914.674 1.185.296.271.652.406 1.068.406Zm4.956.804v-.754l2.832-3.099c.332-.363.606-.679.821-.947.215-.271.374-.525.477-.762.106-.24.159-.491.159-.754a1.39 1.39 0 0 0-.217-.783 1.412 1.412 0 0 0-.587-.511 1.901 1.901 0 0 0-.838-.18 1.74 1.74 0 0 0-.862.205 1.412 1.412 0 0 0-.566.565 1.775 1.775 0 0 0-.197.855h-.988c0-.503.116-.944.347-1.324.232-.379.548-.675.947-.888a2.855 2.855 0 0 1 1.353-.318c.503 0 .948.106 1.336.318.388.213.693.499.913.859.221.36.331.761.331 1.202 0 .316-.057.624-.172.926-.111.299-.307.632-.586 1.001-.276.366-.66.812-1.152 1.34l-1.927 2.061v.067h3.988v.921h-5.412Zm10.351.118c-.553 0-1.046-.095-1.478-.285a2.542 2.542 0 0 1-1.027-.792 2.126 2.126 0 0 1-.41-1.185h1.056c.022.276.117.515.284.716.168.198.387.352.658.461.271.109.571.163.9.163.369 0 .696-.064.981-.193a1.61 1.61 0 0 0 .67-.536c.162-.229.243-.494.243-.795 0-.316-.079-.594-.235-.834a1.55 1.55 0 0 0-.687-.57c-.301-.136-.67-.205-1.106-.205h-.686v-.921h.686c.341 0 .64-.062.897-.185a1.392 1.392 0 0 0 .829-1.306c0-.291-.064-.544-.193-.759a1.315 1.315 0 0 0-.544-.502 1.766 1.766 0 0 0-.821-.18c-.296 0-.575.054-.838.163a1.555 1.555 0 0 0-.636.465 1.203 1.203 0 0 0-.268.729h-1.006c.017-.45.152-.844.407-1.181.254-.341.586-.606.996-.796.414-.19.867-.285 1.362-.285.53 0 .985.107 1.365.322.38.213.672.493.876.842.203.349.305.726.305 1.131 0 .483-.127.895-.381 1.236a1.927 1.927 0 0 1-1.026.708v.067c.542.089.965.32 1.269.691.304.368.457.825.457 1.37 0 .466-.127.885-.381 1.256a2.588 2.588 0 0 1-1.031.871c-.435.213-.931.319-1.487.319Zm8.759-8.696v8.578h-1.038v-7.489h-.051l-2.094 1.391v-1.056l2.145-1.424h1.038Z" opacity=".25" fill="#fff"/></g><defs><clipPath id="6sudt81yoa"><path d="M0 6.74A6.74 6.74 0 0 1 6.74 0h450.52A6.74 6.74 0 0 1 464 6.74V286H0V6.74Z" fill="#fff"/></clipPath><clipPath id="8hii3un3gb"><path fill="#fff" transform="translate(201.143 20.22)" d="M0 0h16.85v16.85H0z"/></clipPath></defs></svg>