<svg width="48" height="48" fill="none" xmlns="http://www.w3.org/2000/svg"><g clip-path="url(#hq0lq1d69a)"><path fill-rule="evenodd" clip-rule="evenodd" d="M44.033 43.241c3.791-2.042 5.099-6.596 2.898-10.149L30.634 6.71c-2.179-3.553-7.016-4.758-10.828-2.716-3.813 2.042-5.099 6.596-2.92 10.15l16.319 26.382c2.179 3.554 7.037 4.779 10.828 2.716Zm-28.346-6.35c0 4.06-3.512 7.35-7.844 7.35-4.331 0-7.843-3.29-7.843-7.35s3.512-7.352 7.843-7.352c4.332 0 7.844 3.291 7.844 7.351Z" fill="#fff"/></g><defs><clipPath id="hq0lq1d69a"><path fill="#fff" d="M0 0h48v48H0z"/></clipPath></defs></svg>